<svg width="199" height="43" viewBox="0 0 199 43" fill="none" xmlns="http://www.w3.org/2000/svg">
<path d="M91.7463 1.6765L85.4861 6.54191C84.8617 7.02802 84.8777 7.78777 85.5211 8.2399L100.76 18.9316C101.404 19.3842 102.433 19.357 103.059 18.8712L109.319 14.0048C112.053 11.8798 111.983 8.53959 109.163 6.56117C107.744 5.56448 105.877 5.0786 103.991 5.15131C103.993 3.75731 103.241 2.40589 101.821 1.40966C99.0001 -0.569898 94.4813 -0.449616 91.7463 1.6765V1.6765ZM104.069 6.95101C105.337 6.90253 106.543 7.2328 107.467 7.88042C109.322 9.18223 109.367 11.379 107.568 12.7773L101.874 17.2042L99.9303 15.8399L99.8136 15.7585L104.409 12.1868C104.746 11.9238 104.958 11.6092 105.065 11.2821C105.275 10.6331 105.043 9.92634 104.351 9.44046C103.385 8.76271 101.501 9.04224 101.326 9.17792L96.1593 13.1946L93.5094 11.3351C94.8602 10.2856 98.5441 7.42013 98.6755 7.3191C98.8362 7.19361 99.0322 5.70923 98.1743 5.10714C97.7656 4.81991 97.2606 4.65772 96.7375 4.60789C95.9276 4.52974 95.0719 4.72908 94.4596 5.20522L89.8645 8.77698L89.7697 8.71129L87.8023 7.33065L93.4965 2.90446C95.2952 1.50615 98.2686 1.42687 100.124 2.72913C101.048 3.3763 101.555 4.24885 101.553 5.18642L101.552 7.04773L104.069 6.95101V6.95101ZM0 27.9743C0.841902 27.796 2.17102 27.6633 3.52294 27.6633C5.45058 27.6633 6.69051 27.9965 7.6216 28.7517C8.39667 29.33 8.86153 30.2193 8.86153 31.3979C8.86153 32.842 7.90923 34.1087 6.33605 34.687V34.7321C7.75412 35.0868 9.41558 36.2656 9.41558 38.4882C9.41558 39.7773 8.90578 40.7552 8.15284 41.4885C7.11158 42.4448 5.42777 42.8893 2.99102 42.8893C1.66168 42.8893 0.642772 42.7996 0 42.7117V27.9743H0ZM1.92741 34.1084H3.67782C5.71608 34.1084 6.91245 33.0422 6.91245 31.597C6.91245 29.8408 5.5831 29.1522 3.63357 29.1522C2.74741 29.1522 2.2374 29.2188 1.92741 29.2849V34.1084V34.1084ZM1.92741 41.2889C2.304 41.3555 2.85804 41.377 3.54506 41.377C5.53885 41.377 7.37731 40.644 7.37731 38.4658C7.37731 36.4208 5.62758 35.5758 3.52294 35.5758H1.92741V41.2889ZM15.546 27.9743C16.5206 27.7743 17.9163 27.6633 19.2461 27.6633C21.3065 27.6633 22.6356 28.0409 23.5663 28.8851C24.319 29.552 24.7403 30.5747 24.7403 31.7307C24.7403 33.7089 23.4997 35.0209 21.9265 35.5541V35.6207C23.0788 36.0205 23.7654 37.0881 24.1196 38.6438C24.6073 40.7332 24.9615 42.1778 25.2722 42.7558H23.2782C23.0346 42.3334 22.7025 41.044 22.2807 39.1768C21.8378 37.1096 21.0408 36.332 19.2904 36.2654H17.4734V42.7556H15.546V27.9743ZM17.4736 34.7984H19.4455C21.5059 34.7984 22.8133 33.6642 22.8133 31.9529C22.8133 30.0191 21.4171 29.1744 19.3789 29.1522C18.4489 29.1522 17.7836 29.241 17.4736 29.3298V34.7984V34.7984ZM32.8599 27.7743V36.6428C32.8599 39.9991 34.3446 41.4221 36.3386 41.4221C38.5539 41.4221 39.9717 39.9542 39.9717 36.6428V27.7743H41.9208V36.5093C41.9208 41.1104 39.5062 42.9998 36.272 42.9998C33.2142 42.9998 30.9104 41.2436 30.9104 36.5981V27.7741H32.8599V27.7743ZM48.7429 42.7556V27.7743H50.8476L55.6324 35.3539C56.7407 37.1094 57.6043 38.6873 58.3134 40.2213L58.3576 40.1991C58.1811 38.1989 58.1362 36.3761 58.1362 34.0419V27.7741H59.9532V42.7554H58.0034L53.2622 35.1532C52.2216 33.4862 51.2239 31.7751 50.471 30.1516L50.4046 30.1745C50.5153 32.0634 50.5597 33.8645 50.5597 36.3539V42.7554H48.7429V42.7556ZM79.4364 36.1759C79.3257 34.0869 79.193 31.5748 79.2144 29.7076H79.1487C78.6387 31.4636 78.0183 33.3304 77.2653 35.398L74.6286 42.6666H73.1667L70.7521 35.5308C70.0422 33.4201 69.4446 31.4865 69.0238 29.7076H68.9795C68.9355 31.5746 68.8246 34.0869 68.6919 36.3317L68.2932 42.7554H66.4538L67.4951 27.7741H69.9546L72.502 35.0204C73.1227 36.8654 73.632 38.5097 74.0088 40.0655H74.0747C74.4518 38.5541 74.9837 36.9089 75.6481 35.0204L78.3061 27.7741H80.7657L81.6963 42.7554H79.8132L79.4364 36.1759V36.1759ZM100.957 35.1094C100.957 40.2657 97.834 43 94.0228 43C90.0797 43 87.3101 39.9332 87.3101 35.398C87.3101 30.6411 90.2569 27.5299 94.2447 27.5299C98.3212 27.5299 100.957 30.6633 100.957 35.1094V35.1094ZM89.3708 35.3539C89.3708 38.5546 91.0988 41.4221 94.1341 41.4221C97.1908 41.4221 98.9191 38.599 98.9191 35.1982C98.9191 32.2197 97.368 29.1076 94.1562 29.1076C90.9654 29.1078 89.3708 32.0637 89.3708 35.3539V35.3539ZM107.055 42.7556V27.7743H109.16L113.945 35.3539C115.052 37.1094 115.916 38.6873 116.626 40.2213L116.67 40.1991C116.493 38.1989 116.448 36.3761 116.448 34.0419V27.7741H118.265V42.7554H116.316L111.575 35.1532C110.533 33.4862 109.536 31.7751 108.783 30.1516L108.716 30.1745C108.827 32.0634 108.871 33.8645 108.871 36.3539V42.7554H107.055V42.7556ZM128.107 29.4193H123.564V27.7743H134.62V29.4193H130.057V42.7556H128.107V29.4193V29.4193ZM140.613 38.0438L139.063 42.7556H137.068L142.142 27.7743H144.468L149.563 42.7556H147.504L145.909 38.0438H140.613V38.0438ZM145.509 36.5318L144.046 32.2197C143.714 31.2416 143.492 30.3523 143.272 29.4861H143.227C143.006 30.3747 142.762 31.286 142.474 32.1978L141.011 36.532H145.509V36.5318ZM165.986 42.0881C165.123 42.4004 163.417 42.9115 161.401 42.9115C159.14 42.9115 157.28 42.3331 155.818 40.933C154.534 39.6885 153.736 37.6879 153.736 35.3541C153.758 30.8858 156.816 27.6191 161.822 27.6191C163.55 27.6191 164.902 27.9967 165.544 28.3077L165.078 29.8863C164.282 29.5303 163.285 29.2412 161.777 29.2412C158.144 29.2412 155.774 31.5087 155.774 35.2653C155.774 39.0665 158.056 41.3109 161.533 41.3109C162.797 41.3109 163.661 41.1335 164.104 40.9108V36.4432H161.069V34.8874H165.986V42.0881H165.986ZM172.506 42.7556V27.7743H174.61L179.395 35.3539C180.502 37.1094 181.367 38.6873 182.076 40.2213L182.121 40.1991C181.943 38.1989 181.898 36.3761 181.898 34.0419V27.7741H183.715V42.7554H181.766L177.025 35.1532C175.984 33.4862 174.987 31.7751 174.234 30.1516L174.168 30.1745C174.277 32.0634 174.322 33.8645 174.322 36.3539V42.7554H172.506V42.7556ZM198.335 35.7315H192.531V41.1333H199V42.7556H190.604V27.7743H198.667V29.3966H192.531V34.1313H198.335V35.7315Z" fill="#F1F1F1"/>
</svg>
