<svg width="99" height="73" viewBox="0 0 99 73" fill="none" xmlns="http://www.w3.org/2000/svg">
<path d="M25.1854 6.277L1.71756 24.494C-0.623468 26.3141 -0.563377 29.1588 1.84875 30.8516L58.9771 70.8834C61.3901 72.578 65.2487 72.4762 67.5931 70.657L91.0592 52.4366C101.31 44.4803 101.049 31.9737 90.4769 24.5661C85.155 20.8343 78.1582 19.0151 71.0894 19.2873C71.0962 14.0679 68.2778 9.00799 62.9542 5.2779C52.3781 -2.13392 35.4382 -1.68356 25.1854 6.277V6.277ZM71.3788 26.0258C76.132 25.8443 80.6541 27.0808 84.1174 29.5056C91.0719 34.3799 91.2403 42.605 84.4974 47.8406L63.1522 64.4156L55.8651 59.3073L55.4275 59.0028L72.6535 45.6295C73.9188 44.6448 74.7144 43.4667 75.113 42.242C75.9018 39.8121 75.0309 37.166 72.4376 35.3467C68.8161 32.8091 61.754 33.8557 61.099 34.3637L41.7283 49.4028L31.7946 42.4405C36.8584 38.5111 50.6684 27.7822 51.161 27.404C51.7636 26.9341 52.4983 21.3763 49.2821 19.122C47.7502 18.0465 45.8569 17.4393 43.8959 17.2527C40.86 16.9601 37.6523 17.7064 35.3569 19.4892L18.131 32.8625L17.7755 32.6166L10.4003 27.4472L31.7464 10.8747C38.4893 5.63921 49.6359 5.34236 56.5913 10.2183C60.0554 12.6414 61.9572 15.9084 61.9487 19.4188L61.9436 26.3879L71.3788 26.0258V26.0258Z" fill="black"/>
</svg>
