<svg
  width="14"
  height="14"
  fill="#fff"
  xmlns="http://www.w3.org/2000/svg"
>
  <path
    d="M5.019 10.492l-2.322-3.17A.796.796 0 013.91 6.304L6.628 9.14a1.056 1.056 0 11-1.61 1.351z"
    fill="currentColor"
  />
  <path
    d="M5.209 10.693a1.11 1.11 0 01-.105-1.6l5.394-5.88a.757.757 0 011.159.973l-4.855 6.332a1.11 1.11 0 01-1.593.175z"
    fill="currentColor"
  />
  <path
    d="M5.331 7.806c.272.326.471.543.815.163.345-.38-.108.96-.108.96l-1.123-.363.416-.76z"
    fill="currentColor"
  />
</svg>
