<svg width="37" height="36" viewBox="0 0 37 36" fill="none" xmlns="http://www.w3.org/2000/svg">
<path d="M27.7561 15L28.7975 14.055C28.531 13.7612 28.1528 13.5937 27.7561 13.5937V15ZM33.0061 20.7857H34.4124C34.4124 20.4363 34.2823 20.0994 34.0475 19.8407L33.0061 20.7857ZM33.0061 27L33.0063 28.4062C33.7829 28.4061 34.4124 27.7765 34.4124 27H33.0061ZM29.8782 27.0004L28.5523 27.4688L28.5523 27.4688L29.8782 27.0004ZM25.634 27.0004L26.9599 27.4688L26.9599 27.4688L25.634 27.0004ZM22.5061 15V13.5937C21.7295 13.5937 21.0999 14.2233 21.0999 15H22.5061ZM1.5061 7.59372C0.729453 7.59372 0.0998536 8.22332 0.0998536 8.99997C0.0998536 9.77662 0.729453 10.4062 1.5061 10.4062V7.59372ZM22.5061 8.99997H23.9124C23.9124 8.22332 23.2828 7.59372 22.5061 7.59372V8.99997ZM6.00648 25.5937C5.22983 25.5935 4.60006 26.2229 4.59985 26.9996C4.59964 27.7762 5.22907 28.406 6.00572 28.4062L6.00648 25.5937ZM6.7561 19.4062C7.53275 19.4062 8.16235 18.7766 8.16235 18C8.16235 17.2233 7.53275 16.5937 6.7561 16.5937V19.4062ZM4.5061 16.5937C3.72945 16.5937 3.09985 17.2233 3.09985 18C3.09985 18.7766 3.72945 19.4062 4.5061 19.4062V16.5937ZM6.7561 23.9062C7.53275 23.9062 8.16235 23.2766 8.16235 22.5C8.16235 21.7233 7.53275 21.0937 6.7561 21.0937V23.9062ZM6.0061 21.0937C5.22945 21.0937 4.59985 21.7233 4.59985 22.5C4.59985 23.2766 5.22945 23.9062 6.0061 23.9062V21.0937ZM6.7561 14.9062C7.53275 14.9062 8.16235 14.2766 8.16235 13.5C8.16235 12.7233 7.53275 12.0937 6.7561 12.0937V14.9062ZM3.0061 12.0937C2.22945 12.0937 1.59985 12.7233 1.59985 13.5C1.59985 14.2766 2.22945 14.9062 3.0061 14.9062V12.0937ZM26.7147 15.945L31.9647 21.7307L34.0475 19.8407L28.7975 14.055L26.7147 15.945ZM31.5999 20.7857V27H34.4124V20.7857H31.5999ZM33.0059 25.5937L29.878 25.5942L29.8784 28.4067L33.0063 28.4062L33.0059 25.5937ZM31.2042 26.5321C30.7031 25.1135 29.3505 24.0937 27.7561 24.0937V26.9062C28.1213 26.9062 28.4358 27.1391 28.5523 27.4688L31.2042 26.5321ZM27.7561 24.0937C26.1617 24.0937 24.8091 25.1135 24.308 26.5321L26.9599 27.4688C27.0764 27.1391 27.3909 26.9062 27.7561 26.9062V24.0937ZM25.6342 25.5942L22.5063 25.5937L22.5059 28.4062L25.6338 28.4067L25.6342 25.5942ZM23.9124 27V15H21.0999V27H23.9124ZM22.5061 16.4062H27.7561V13.5937H22.5061V16.4062ZM1.5061 10.4062H22.5061V7.59372H1.5061V10.4062ZM21.0999 8.99997V27H23.9124V8.99997H21.0999ZM22.506 25.5937L11.8782 25.5942L11.8783 28.4067L22.5062 28.4062L22.506 25.5937ZM13.2042 26.5321C12.7031 25.1135 11.3505 24.0937 9.7561 24.0937V26.9062C10.1213 26.9062 10.4358 27.1391 10.5523 27.4688L13.2042 26.5321ZM9.7561 24.0937C8.16169 24.0937 6.80907 25.1135 6.30801 26.5321L8.95994 27.4688C9.0764 27.1391 9.39086 26.9062 9.7561 26.9062V24.0937ZM7.63436 25.5942L6.00648 25.5937L6.00572 28.4062L7.6336 28.4067L7.63436 25.5942ZM27.7561 26.9062C28.2221 26.9062 28.5999 27.284 28.5999 27.75H31.4124C31.4124 25.7307 29.7754 24.0937 27.7561 24.0937V26.9062ZM28.5999 27.75C28.5999 28.216 28.2221 28.5937 27.7561 28.5937V31.4062C29.7754 31.4062 31.4124 29.7693 31.4124 27.75H28.5999ZM27.7561 28.5937C27.2901 28.5937 26.9124 28.216 26.9124 27.75H24.0999C24.0999 29.7693 25.7368 31.4062 27.7561 31.4062V28.5937ZM26.9124 27.75C26.9124 27.284 27.2901 26.9062 27.7561 26.9062V24.0937C25.7368 24.0937 24.0999 25.7307 24.0999 27.75H26.9124ZM9.7561 26.9062C10.2221 26.9062 10.5999 27.284 10.5999 27.75H13.4124C13.4124 25.7307 11.7754 24.0937 9.7561 24.0937V26.9062ZM10.5999 27.75C10.5999 28.216 10.2221 28.5937 9.7561 28.5937V31.4062C11.7754 31.4062 13.4124 29.7693 13.4124 27.75H10.5999ZM9.7561 28.5937C9.29011 28.5937 8.91235 28.216 8.91235 27.75H6.09985C6.09985 29.7693 7.73681 31.4062 9.7561 31.4062V28.5937ZM8.91235 27.75C8.91235 27.284 9.29011 26.9062 9.7561 26.9062V24.0937C7.73681 24.0937 6.09985 25.7307 6.09985 27.75H8.91235ZM6.7561 16.5937H4.5061V19.4062H6.7561V16.5937ZM6.7561 21.0937H6.0061V23.9062H6.7561V21.0937ZM6.7561 12.0937H3.0061V14.9062H6.7561V12.0937ZM24.308 26.5321C24.1728 26.9149 24.0999 27.3254 24.0999 27.75H26.9124C26.9124 27.6489 26.9295 27.5549 26.9599 27.4688L24.308 26.5321ZM31.4124 27.75C31.4124 27.3254 31.3394 26.9149 31.2042 26.5321L28.5523 27.4688C28.5827 27.5549 28.5999 27.6489 28.5999 27.75H31.4124ZM6.30801 26.5321C6.1728 26.9149 6.09985 27.3254 6.09985 27.75H8.91235C8.91235 27.6489 8.92953 27.5549 8.95994 27.4688L6.30801 26.5321ZM13.4124 27.75C13.4124 27.3254 13.3394 26.9149 13.2042 26.5321L10.5523 27.4688C10.5827 27.5549 10.5999 27.6489 10.5999 27.75H13.4124Z" fill="#F1F1F1"/>
</svg>
