<svg width="36" height="36" viewBox="0 0 36 36" fill="none" xmlns="http://www.w3.org/2000/svg">
<path fill-rule="evenodd" clip-rule="evenodd" d="M14.5001 9C14.5001 7.067 16.0671 5.5 18.0001 5.5C19.9331 5.5 21.5001 7.067 21.5001 9V9.49998H14.5001V9ZM12.5001 11.5V13.5C12.5001 14.0523 12.9478 14.5 13.5001 14.5C14.0523 14.5 14.5001 14.0523 14.5001 13.5V11.5H21.5001V13.5C21.5001 14.0523 21.9478 14.5 22.5001 14.5C23.0523 14.5 23.5001 14.0523 23.5001 13.5V11.5H26.074L27.4201 29H8.57988L9.92603 11.5H12.5001ZM12.5001 9.49998V9C12.5001 5.96243 14.9625 3.5 18.0001 3.5C21.0376 3.5 23.5001 5.96243 23.5001 9V9.49998H27C27.5225 9.49998 27.957 9.90229 27.9971 10.4233L29.4971 29.9233C29.5184 30.201 29.423 30.4751 29.2337 30.6794C29.0445 30.8838 28.7785 31 28.5 31H7.5C7.22146 31 6.95554 30.8838 6.76628 30.6794C6.57702 30.4751 6.48159 30.201 6.50295 29.9233L8.00295 10.4233C8.04303 9.90229 8.47747 9.49998 9 9.49998H12.5001Z" fill="#F1F1F1"/>
</svg>
