<svg width="36" height="36" viewBox="0 0 36 36" fill="none" xmlns="http://www.w3.org/2000/svg">
<path fill-rule="evenodd" clip-rule="evenodd" d="M13.0001 10.5C13.0001 7.73858 15.2387 5.5 18.0001 5.5C20.7615 5.5 23.0001 7.73858 23.0001 10.5C23.0001 13.2614 20.7615 15.5 18.0001 15.5C15.2387 15.5 13.0001 13.2614 13.0001 10.5ZM18.0001 3.5C14.1341 3.5 11.0001 6.63401 11.0001 10.5C11.0001 14.366 14.1341 17.5 18.0001 17.5C21.8661 17.5 25.0001 14.366 25.0001 10.5C25.0001 6.63401 21.8661 3.5 18.0001 3.5ZM8.5 27.5C8.5 25.2668 10.2586 23.5 12.375 23.5H23.625C25.7414 23.5 27.5 25.2668 27.5 27.5V29H8.5V27.5ZM12.375 21.5C9.10661 21.5 6.5 24.2103 6.5 27.5V30C6.5 30.5523 6.94772 31 7.5 31H28.5C29.0523 31 29.5 30.5523 29.5 30V27.5C29.5 24.2103 26.8934 21.5 23.625 21.5H12.375Z" fill="#F1F1F1"/>
</svg>
