<svg width="0" height="0" class="hidden">
    <symbol xmlns="http://www.w3.org/2000/svg" viewBox="0 0 451.847 451.847" id="arrow-down">
        <path d="M225.923 354.706c-8.098 0-16.195-3.092-22.369-9.263L9.27 151.157c-12.359-12.359-12.359-32.397 0-44.751 12.354-12.354 32.388-12.354 44.748 0l171.905 171.915 171.906-171.909c12.359-12.354 32.391-12.354 44.744 0 12.365 12.354 12.365 32.392 0 44.751L248.292 345.449c-6.177 6.172-14.274 9.257-22.369 9.257z"></path>
    </symbol>
    <symbol xmlns="http://www.w3.org/2000/svg" viewBox="0 0 512 512" id="arrow-left">
        <title>ionicons-v5-a</title>
        <path fill="none" stroke="#000" stroke-linecap="round" stroke-linejoin="round" stroke-width="48" d="M328 112L184 256l144 144"></path>
    </symbol>
    <symbol xmlns="http://www.w3.org/2000/svg" viewBox="0 0 512 512" id="arrow-right">
        <title>ionicons-v5-a</title>
        <path fill="none" stroke="#000" stroke-linecap="round" stroke-linejoin="round" stroke-width="48" d="M184 112l144 144-144 144"></path>
    </symbol>
    <symbol xmlns="http://www.w3.org/2000/svg" viewBox="0 0 512 512" id="arrow-up">
        <title>Arrow Up</title>
        <path fill="none" stroke="currentColor" stroke-linecap="round" stroke-linejoin="round" stroke-width="48" d="M112 244l144-144 144 144M256 120v292"></path>
    </symbol>
    <symbol xmlns="http://www.w3.org/2000/svg" viewBox="0 0 512 512" id="camera">
        <title>ionicons-v5-e</title>
        <path d="M350.54 148.68l-26.62-42.06C318.31 100.08 310.62 96 302 96h-92c-8.62 0-16.31 4.08-21.92 10.62l-26.62 42.06C155.85 155.23 148.62 160 140 160H80a32 32 0 00-32 32v192a32 32 0 0032 32h352a32 32 0 0032-32V192a32 32 0 00-32-32h-59c-8.65 0-16.85-4.77-22.46-11.32z" fill="none" stroke="currentColor" stroke-linecap="round" stroke-linejoin="round" stroke-width="32"></path>
        <circle cx="256" cy="272" r="80" fill="none" stroke="currentColor" stroke-miterlimit="10" stroke-width="32"></circle>
        <path fill="none" stroke="currentColor" stroke-linecap="round" stroke-linejoin="round" stroke-width="32" d="M124 158v-22h-24v22"></path>
    </symbol>
    <symbol xmlns="http://www.w3.org/2000/svg" viewBox="0 0 512 512" id="cart">
        <title>ionicons-v5-d</title>
        <circle cx="176" cy="416" r="16" fill="none" stroke="currentColor" stroke-linecap="round" stroke-linejoin="round" stroke-width="32"></circle>
        <circle cx="400" cy="416" r="16" fill="none" stroke="currentColor" stroke-linecap="round" stroke-linejoin="round" stroke-width="32"></circle>
        <path fill="none" stroke="currentColor" stroke-linecap="round" stroke-linejoin="round" stroke-width="32" d="M48 80h64l48 272h256"></path>
        <path d="M160 288h249.44a8 8 0 007.85-6.43l28.8-144a8 8 0 00-7.85-9.57H128" fill="none" stroke="currentColor" stroke-linecap="round" stroke-linejoin="round" stroke-width="32"></path>
    </symbol>
    <symbol xmlns="http://www.w3.org/2000/svg" viewBox="0 0 512 512" id="comment">
        <title>ionicons-v5-s</title>
        <path d="M87.48 380c1.2-4.38-1.43-10.47-3.94-14.86a42.63 42.63 0 00-2.54-3.8 199.81 199.81 0 01-33-110C47.64 139.09 140.72 48 255.82 48 356.2 48 440 117.54 459.57 209.85a199 199 0 014.43 41.64c0 112.41-89.49 204.93-204.59 204.93-18.31 0-43-4.6-56.47-8.37s-26.92-8.77-30.39-10.11a31.14 31.14 0 00-11.13-2.07 30.7 30.7 0 00-12.08 2.43L81.5 462.78a15.92 15.92 0 01-4.66 1.22 9.61 9.61 0 01-9.58-9.74 15.85 15.85 0 01.6-3.29z" fill="none" stroke="currentColor" stroke-linecap="round" stroke-miterlimit="10" stroke-width="32"></path>
        <circle cx="160" cy="256" r="32"></circle>
        <circle cx="256" cy="256" r="32"></circle>
        <circle cx="352" cy="256" r="32"></circle>
    </symbol>
    <symbol xmlns="http://www.w3.org/2000/svg" viewBox="0 0 24 28" id="facebook">
        <path d="M19.5 2C21.984 2 24 4.016 24 6.5v15c0 2.484-2.016 4.5-4.5 4.5h-2.938v-9.297h3.109l.469-3.625h-3.578v-2.312c0-1.047.281-1.75 1.797-1.75L20.265 9V5.766c-.328-.047-1.469-.141-2.781-.141-2.766 0-4.672 1.687-4.672 4.781v2.672H9.687v3.625h3.125V26H4.499a4.502 4.502 0 01-4.5-4.5v-15c0-2.484 2.016-4.5 4.5-4.5h15z"></path>
    </symbol>
    <symbol xmlns="http://www.w3.org/2000/svg" viewBox="0 0 512 512" id="heart">
        <title>ionicons-v5-f</title>
        <path d="M352.92 80C288 80 256 144 256 144s-32-64-96.92-64c-52.76 0-94.54 44.14-95.08 96.81-1.1 109.33 86.73 187.08 183 252.42a16 16 0 0018 0c96.26-65.34 184.09-143.09 183-252.42-.54-52.67-42.32-96.81-95.08-96.81z" fill="none" stroke="currentColor" stroke-linecap="round" stroke-linejoin="round" stroke-width="32"></path>
    </symbol>
    <symbol xmlns="http://www.w3.org/2000/svg" viewBox="0 0 24 28" id="instagram">
        <path d="M16 14c0-2.203-1.797-4-4-4s-4 1.797-4 4 1.797 4 4 4 4-1.797 4-4zm2.156 0c0 3.406-2.75 6.156-6.156 6.156S5.844 17.406 5.844 14 8.594 7.844 12 7.844s6.156 2.75 6.156 6.156zm1.688-6.406c0 .797-.641 1.437-1.437 1.437S16.97 8.39 16.97 7.594s.641-1.437 1.437-1.437 1.437.641 1.437 1.437zM12 4.156c-1.75 0-5.5-.141-7.078.484-.547.219-.953.484-1.375.906s-.688.828-.906 1.375c-.625 1.578-.484 5.328-.484 7.078s-.141 5.5.484 7.078c.219.547.484.953.906 1.375s.828.688 1.375.906c1.578.625 5.328.484 7.078.484s5.5.141 7.078-.484c.547-.219.953-.484 1.375-.906s.688-.828.906-1.375c.625-1.578.484-5.328.484-7.078s.141-5.5-.484-7.078c-.219-.547-.484-.953-.906-1.375s-.828-.688-1.375-.906C17.5 4.015 13.75 4.156 12 4.156zM24 14c0 1.656.016 3.297-.078 4.953-.094 1.922-.531 3.625-1.937 5.031s-3.109 1.844-5.031 1.937c-1.656.094-3.297.078-4.953.078s-3.297.016-4.953-.078c-1.922-.094-3.625-.531-5.031-1.937S.173 20.875.08 18.953C-.014 17.297.002 15.656.002 14s-.016-3.297.078-4.953c.094-1.922.531-3.625 1.937-5.031s3.109-1.844 5.031-1.937c1.656-.094 3.297-.078 4.953-.078s3.297-.016 4.953.078c1.922.094 3.625.531 5.031 1.937s1.844 3.109 1.937 5.031C24.016 10.703 24 12.344 24 14z"></path>
    </symbol>
    <symbol xmlns="http://www.w3.org/2000/svg" viewBox="0 0 881.422 189.829" id="logo">
        <path d="M406.368 7.401L378.64 28.88c-2.766 2.146-2.695 5.5.155 7.496l67.499 47.2c2.851 1.998 7.41 1.878 10.18-.267L484.2 61.826c12.111-9.381 11.803-24.127-.688-32.861-6.288-4.4-14.555-6.545-22.907-6.224.008-6.154-3.322-12.12-9.612-16.518-12.496-8.739-32.511-8.208-44.625 1.178zm54.579 23.285c5.616-.214 10.959 1.244 15.051 4.103 8.217 5.747 8.416 15.445.449 21.618l-25.22 19.543-8.61-6.023-.517-.359L462.453 53.8c1.495-1.161 2.435-2.55 2.906-3.994.932-2.865-.097-5.985-3.161-8.13-4.279-2.992-12.623-1.758-13.397-1.159l-22.887 17.732-11.737-8.209c5.983-4.633 22.3-17.283 22.882-17.729.712-.554 1.58-7.107-2.22-9.765-1.81-1.268-4.047-1.984-6.364-2.204-3.587-.345-7.377.535-10.089 2.637l-20.353 15.768-.42-.29-8.714-6.095 25.221-19.54c7.967-6.173 21.137-6.523 29.355-.774 4.093 2.857 6.34 6.709 6.33 10.848l-.006 8.217 11.148-.427z"></path>
        <path d="M406.368 7.401L378.64 28.88c-2.766 2.146-2.695 5.5.155 7.496l67.499 47.2c2.851 1.998 7.41 1.878 10.18-.267L484.2 61.826c12.111-9.381 11.803-24.127-.688-32.861-6.288-4.4-14.555-6.545-22.907-6.224.008-6.154-3.322-12.12-9.612-16.518-12.496-8.739-32.511-8.208-44.625 1.178zm54.579 23.285c5.616-.214 10.959 1.244 15.051 4.103 8.217 5.747 8.416 15.445.449 21.618l-25.22 19.543-8.61-6.023-.517-.359L462.453 53.8c1.495-1.161 2.435-2.55 2.906-3.994.932-2.865-.097-5.985-3.161-8.13-4.279-2.992-12.623-1.758-13.397-1.159l-22.887 17.732-11.737-8.209c5.983-4.633 22.3-17.283 22.882-17.729.712-.554 1.58-7.107-2.22-9.765-1.81-1.268-4.047-1.984-6.364-2.204-3.587-.345-7.377.535-10.089 2.637l-20.353 15.768-.42-.29-8.714-6.095 25.221-19.54c7.967-6.173 21.137-6.523 29.355-.774 4.093 2.857 6.34 6.709 6.33 10.848l-.006 8.217 11.148-.427zM0 123.496c3.729-.787 9.616-1.373 15.604-1.373 8.538 0 14.03 1.471 18.154 4.805 3.433 2.553 5.492 6.479 5.492 11.682 0 6.375-4.218 11.967-11.186 14.52v.199c6.281 1.566 13.64 6.77 13.64 16.582 0 5.691-2.258 10.008-5.593 13.245-4.612 4.222-12.07 6.184-22.863 6.184-5.888 0-10.401-.396-13.248-.784v-65.06zm8.537 27.08h7.753c9.028 0 14.327-4.707 14.327-11.087 0-7.753-5.888-10.793-14.523-10.793-3.925 0-6.184.294-7.557.586v21.294zm0 31.699c1.668.294 4.122.389 7.165.389 8.831 0 16.974-3.236 16.974-12.852 0-9.028-7.75-12.758-17.072-12.758H8.537v25.221zm60.32-58.779c4.317-.883 10.499-1.373 16.389-1.373 9.126 0 15.013 1.667 19.135 5.394 3.334 2.944 5.2 7.459 5.2 12.562 0 8.733-5.495 14.525-12.463 16.879v.294c5.104 1.765 8.145 6.478 9.714 13.346 2.16 9.224 3.729 15.601 5.105 18.153h-8.832c-1.079-1.865-2.55-7.557-4.418-15.8-1.962-9.126-5.492-12.559-13.245-12.853h-8.048v28.652h-8.537v-65.254zm8.538 30.126h8.734c9.126 0 14.917-5.007 14.917-12.562 0-8.537-6.184-12.266-15.212-12.364-4.119 0-7.066.392-8.439.784v24.142zm68.15-31.009v39.151c0 14.817 6.576 21.099 15.408 21.099 9.812 0 16.092-6.48 16.092-21.099v-39.151h8.633v38.562c0 20.312-10.695 28.653-25.02 28.653-13.544 0-23.748-7.753-23.748-28.261v-38.955h8.635zm70.35 66.137v-66.137h9.322l21.193 33.461c4.909 7.75 8.734 14.716 11.875 21.488l.196-.098c-.782-8.83-.981-16.877-.981-27.182v-27.67h8.048v66.137h-8.636l-21-33.561c-4.609-7.359-9.028-14.913-12.363-22.08l-.294.101c.49 8.339.687 16.29.687 27.28v28.26h-8.047zm135.949-29.047c-.49-9.222-1.078-20.312-.983-28.555h-.291c-2.259 7.752-5.007 15.993-8.342 25.121l-11.679 32.088h-6.475l-10.695-31.502c-3.144-9.318-5.791-17.854-7.655-25.707h-.196c-.195 8.242-.686 19.333-1.274 29.243l-1.766 28.358h-8.147l4.612-66.137h10.894l11.283 31.99c2.749 8.145 5.005 15.404 6.674 22.272h.292c1.67-6.672 4.026-13.935 6.969-22.272l11.773-31.99h10.894l4.122 66.137h-8.341l-1.669-29.046zm95.322-4.708c0 22.763-13.834 34.834-30.715 34.834-17.465 0-29.732-13.539-29.732-33.56 0-21 13.052-34.735 30.715-34.735 18.056 0 29.732 13.833 29.732 33.461zm-51.32 1.079c0 14.13 7.654 26.789 21.098 26.789 13.539 0 21.194-12.463 21.194-27.476 0-13.149-6.87-26.888-21.096-26.888-14.133.001-21.196 13.05-21.196 27.575zm78.326 32.676v-66.137h9.324l21.194 33.461c4.906 7.75 8.733 14.716 11.875 21.488l.196-.098c-.785-8.83-.981-16.877-.981-27.182v-27.67h8.048v66.137h-8.636l-20.998-33.561c-4.614-7.359-9.03-14.913-12.368-22.08l-.294.101c.49 8.339.687 16.29.687 27.28v28.26h-8.047zm93.246-58.875h-20.12v-7.262h48.97v7.262h-20.214v58.875h-8.636v-58.875zm55.394 38.074l-6.868 20.801h-8.834l22.475-66.137h10.3l22.569 66.137h-9.123l-7.063-20.801h-23.456zm21.684-6.675l-6.479-19.036c-1.471-4.318-2.454-8.244-3.43-12.068h-.198c-.979 3.923-2.058 7.946-3.335 11.971l-6.48 19.134h19.922zm90.699 24.529c-3.825 1.379-11.377 3.635-20.309 3.635-10.012 0-18.252-2.553-24.73-8.734-5.686-5.494-9.219-14.326-9.219-24.629.096-19.726 13.641-34.147 35.814-34.147 7.655 0 13.641 1.667 16.484 3.04l-2.06 6.969c-3.53-1.572-7.946-2.848-14.623-2.848-16.092 0-26.591 10.01-26.591 26.594 0 16.781 10.109 26.689 25.512 26.689 5.596 0 9.423-.783 11.385-1.766v-19.723h-13.441v-6.868h21.777v31.788zm28.877 2.947v-66.137h9.322l21.191 33.461c4.906 7.75 8.734 14.716 11.877 21.488l.199-.098c-.787-8.83-.986-16.877-.986-27.182v-27.67h8.045v66.137h-8.631l-21-33.561c-4.612-7.359-9.028-14.913-12.362-22.08l-.294.101c.484 8.339.684 16.29.684 27.28v28.26h-8.045zm114.405-31.009H852.77v23.847h28.652v7.162h-37.188v-66.137h35.711v7.162H852.77v20.902h25.707v7.064z"></path>
    </symbol>
    <symbol xmlns="http://www.w3.org/2000/svg" viewBox="0 0 512 512" id="minus-round">
        <title>ionicons-v5-e</title>
        <path d="M448 256c0-106-86-192-192-192S64 150 64 256s86 192 192 192 192-86 192-192z" fill="none" stroke="currentColor" stroke-miterlimit="10" stroke-width="32"></path>
        <path fill="none" stroke="currentColor" stroke-linecap="round" stroke-linejoin="round" stroke-width="32" d="M336 256H176"></path>
    </symbol>
    <symbol xmlns="http://www.w3.org/2000/svg" viewBox="0 0 512 512" id="netherlands">
        <circle cx="256" cy="256" r="256" fill="#f0f0f0"></circle>
        <path d="M256 0C145.929 0 52.094 69.472 15.923 166.957h480.155C459.906 69.472 366.071 0 256 0z" fill="#a2001d"></path>
        <path d="M256 512c110.071 0 203.906-69.472 240.077-166.957H15.923C52.094 442.528 145.929 512 256 512z" fill="#0052b4"></path>
    </symbol>
    <symbol xmlns="http://www.w3.org/2000/svg" viewBox="0 0 512 512" id="plus-round">
        <title>ionicons-v5-a</title>
        <path d="M448 256c0-106-86-192-192-192S64 150 64 256s86 192 192 192 192-86 192-192z" fill="none" stroke="currentColor" stroke-miterlimit="10" stroke-width="32"></path>
        <path fill="none" stroke="currentColor" stroke-linecap="round" stroke-linejoin="round" stroke-width="32" d="M256 176v160m80-80H176"></path>
    </symbol>
    <symbol xmlns="http://www.w3.org/2000/svg" viewBox="0 0 512 512" id="plus">
        <title>ionicons-v5-a</title>
        <path fill="none" stroke="currentColor" stroke-linecap="round" stroke-linejoin="round" stroke-width="32" d="M256 112v288m144-144H112"></path>
    </symbol>
    <symbol xmlns="http://www.w3.org/2000/svg" viewBox="0 0 349.078 349.078" id="quotation-mark">
        <path d="M150.299 26.634v58.25c0 7.9-6.404 14.301-14.304 14.301-28.186 0-43.518 28.909-45.643 85.966h45.643c7.9 0 14.304 6.407 14.304 14.304v122.992c0 7.896-6.404 14.298-14.304 14.298H14.301C6.398 336.745 0 330.338 0 322.447V199.455c0-27.352 2.754-52.452 8.183-74.611 5.568-22.721 14.115-42.587 25.396-59.048 11.608-16.917 26.128-30.192 43.16-39.44C93.886 17.052 113.826 12.333 136 12.333c7.895 0 14.299 6.401 14.299 14.301zm184.474 72.552c7.896 0 14.305-6.407 14.305-14.301v-58.25c0-7.9-6.408-14.301-14.305-14.301-22.165 0-42.108 4.72-59.249 14.023-17.035 9.248-31.563 22.523-43.173 39.44-11.277 16.461-19.824 36.328-25.393 59.054-5.426 22.166-8.18 47.266-8.18 74.605v122.992c0 7.896 6.406 14.298 14.304 14.298h121.69c7.896 0 14.299-6.407 14.299-14.298V199.455c0-7.896-6.402-14.304-14.299-14.304H289.78c2.093-57.056 17.201-85.965 44.993-85.965z"></path>
    </symbol>
    <symbol xmlns="http://www.w3.org/2000/svg" viewBox="0 0 512 512" id="star-empty">
        <title>ionicons-v5-e</title>
        <path d="M480 208H308L256 48l-52 160H32l140 96-54 160 138-100 138 100-54-160z" fill="none" stroke="currentColor" stroke-linejoin="round" stroke-width="32"></path>
    </symbol>
    <symbol xmlns="http://www.w3.org/2000/svg" viewBox="0 0 512 512" id="star-full">
        <title>ionicons-v5-e</title>
        <path d="M394 480a16 16 0 01-9.39-3L256 383.76 127.39 477a16 16 0 01-24.55-18.08L153 310.35 23 221.2a16 16 0 019-29.2h160.38l48.4-148.95a16 16 0 0130.44 0l48.4 149H480a16 16 0 019.05 29.2L359 310.35l50.13 148.53A16 16 0 01394 480z"></path>
    </symbol>
    <symbol xmlns="http://www.w3.org/2000/svg" viewBox="0 0 512 512" id="united-kingdom">
        <circle cx="256" cy="256" r="256" fill="#f0f0f0"></circle>
        <path d="M52.92 100.142c-20.109 26.163-35.272 56.318-44.101 89.077h133.178L52.92 100.142zm450.261 89.077c-8.829-32.758-23.993-62.913-44.101-89.076l-89.075 89.076h133.176zM8.819 322.784c8.83 32.758 23.993 62.913 44.101 89.075l89.074-89.075H8.819zM411.858 52.921c-26.163-20.109-56.317-35.272-89.076-44.102v133.177l89.076-89.075zM100.142 459.079c26.163 20.109 56.318 35.272 89.076 44.102V370.005l-89.076 89.074zm89.075-450.26c-32.758 8.83-62.913 23.993-89.075 44.101l89.075 89.075V8.819zm133.566 494.362c32.758-8.83 62.913-23.993 89.075-44.101l-89.075-89.075v133.176zm47.222-180.397l89.075 89.076c20.108-26.162 35.272-56.318 44.101-89.076H370.005z" fill="#0052b4"></path>
        <g fill="#d80027">
            <path d="M509.833 222.609H289.392V2.167A258.556 258.556 0 00256 0c-11.319 0-22.461.744-33.391 2.167v220.441H2.167A258.556 258.556 0 000 256c0 11.319.744 22.461 2.167 33.391h220.441v220.442a258.35 258.35 0 0066.783 0V289.392h220.442A258.533 258.533 0 00512 256c0-11.317-.744-22.461-2.167-33.391z"></path>
            <path d="M322.783 322.784L437.019 437.02a256.636 256.636 0 0015.048-16.435l-97.802-97.802h-31.482v.001zm-133.566 0h-.002L74.98 437.019a256.636 256.636 0 0016.435 15.048l97.802-97.804v-31.479zm0-133.565v-.002L74.981 74.98a256.636 256.636 0 00-15.048 16.435l97.803 97.803h31.481zm133.566 0L437.02 74.981a256.328 256.328 0 00-16.435-15.047l-97.802 97.803v31.482z"></path>
        </g>
    </symbol>
    <symbol xmlns="http://www.w3.org/2000/svg" viewBox="0 0 512 512" id="watch">
        <path d="M434.919 216.615h-37.063v78.769h37.063c12.43 0 22.505-10.077 22.505-22.506V239.12c0-12.428-10.076-22.505-22.505-22.505zM322.594 397.661V512h-33.758l-45.011-114.339z" fill="#130f40"></path>
        <path fill="#130f40" d="M155.648 397.661h133.188V512H155.648zm166.946-283.322V0h-33.758l-45.011 114.339z"></path>
        <path fill="#130f40" d="M155.648 0h133.188v114.339H155.648z"></path>
        <path d="M423.666 256c0-49.424-19.533-94.37-51.28-127.531.01.007-21.224-72.052-21.224-72.052-2.276-7.727-9.595-12.595-17.312-12.074l-11.255-.038v47.138c-25.081-12.775-53.451-19.987-83.474-19.987s-58.393 7.212-83.474 19.986V44.303l-11.255.038c-7.717-.521-15.035 4.347-17.312 12.074l-21.234 72.06c-31.737 33.154-51.27 78.1-51.27 127.524s19.533 94.37 51.28 127.531c-.01-.007 21.224 72.052 21.224 72.052 2.278 7.727 9.595 12.595 17.312 12.074l11.255.038v-47.138c25.081 12.775 53.451 19.986 83.474 19.986s58.393-7.212 83.474-19.986v47.138l11.255-.038c7.717.521 15.035-4.347 17.312-12.074l21.234-72.06c31.737-33.152 51.27-78.098 51.27-127.522z" fill="#ffe777"></path>
        <path d="M240.629 105.224v301.551c82.46-.81 149.279-68.135 149.279-150.776s-66.819-149.964-149.279-150.775z" fill="#d5f6f5"></path>
        <path d="M240.629 105.224C304.466 106.271 356.15 173.506 356.15 256s-51.684 149.729-115.521 150.776c-.495.011-1.001.011-1.508.011-83.147 0-150.787-67.64-150.787-150.787s67.64-150.787 150.787-150.787c.506 0 1.013 0 1.508.011z" fill="#fff"></path>
        <path d="M311.138 264.44H239.12a8.44 8.44 0 01-8.44-8.44v-49.512c0-4.662 3.778-8.44 8.44-8.44s8.44 3.778 8.44 8.44v41.073h63.578a8.44 8.44 0 018.44 8.44 8.438 8.438 0 01-8.44 8.439z" fill="#4d4d4d"></path>
        <path d="M239.121 158.664a8.44 8.44 0 01-8.44-8.44v-11.253c0-4.662 3.778-8.44 8.44-8.44s8.44 3.778 8.44 8.44v11.253a8.44 8.44 0 01-8.44 8.44zm-52.88 14.173a8.437 8.437 0 01-7.317-4.221l-5.626-9.745a8.44 8.44 0 0114.617-8.439l5.626 9.745a8.44 8.44 0 01-7.3 12.66zm-38.732 38.716a8.406 8.406 0 01-4.212-1.132l-9.745-5.626a8.44 8.44 0 018.439-14.617l9.745 5.626a8.44 8.44 0 01-4.227 15.749zm-14.164 52.887h-11.253a8.44 8.44 0 01-8.44-8.44 8.44 8.44 0 018.44-8.44h11.253a8.44 8.44 0 018.44 8.44 8.44 8.44 0 01-8.44 8.44zm4.434 58.515a8.44 8.44 0 01-4.228-15.749l9.745-5.626a8.44 8.44 0 018.439 14.617l-9.745 5.626a8.395 8.395 0 01-4.211 1.132zm42.82 42.835a8.44 8.44 0 01-7.301-12.66l5.626-9.745a8.44 8.44 0 0114.617 8.439l-5.626 9.745a8.434 8.434 0 01-7.316 4.221zm58.522 15.678a8.44 8.44 0 01-8.44-8.44v-11.253c0-4.662 3.778-8.44 8.44-8.44s8.44 3.778 8.44 8.44v11.253a8.44 8.44 0 01-8.44 8.44zm58.522-15.678a8.437 8.437 0 01-7.317-4.221l-5.626-9.745a8.44 8.44 0 0114.617-8.439l5.626 9.745a8.439 8.439 0 01-7.3 12.66zm42.82-42.835a8.406 8.406 0 01-4.212-1.132l-9.745-5.626a8.44 8.44 0 01-3.089-11.528c2.329-4.038 7.489-5.419 11.528-3.089l9.745 5.626a8.44 8.44 0 01-4.227 15.749zm15.686-58.515h-11.253a8.44 8.44 0 01-8.44-8.44 8.44 8.44 0 018.44-8.44h11.253a8.44 8.44 0 018.44 8.44 8.44 8.44 0 01-8.44 8.44zm-25.416-52.887a8.44 8.44 0 01-4.228-15.749l9.745-5.626a8.44 8.44 0 018.439 14.617l-9.745 5.626a8.395 8.395 0 01-4.211 1.132zm-38.732-38.716a8.44 8.44 0 01-7.301-12.66l5.626-9.745a8.44 8.44 0 0114.617 8.439l-5.626 9.745a8.435 8.435 0 01-7.316 4.221z" fill="#81e3e2"></path>
    </symbol>
</svg>