<svg viewBox="0 0 881.422 189.829" id="logo" xmlns="http://www.w3.org/2000/svg">
    <path d="M406.368 7.401L378.64 28.88c-2.766 2.146-2.695 5.5.155 7.496l67.499 47.2c2.851 1.998 7.41 1.878 10.18-.267L484.2 61.826c12.111-9.381 11.803-24.127-.688-32.861-6.288-4.4-14.555-6.545-22.907-6.224.008-6.154-3.322-12.12-9.612-16.518-12.496-8.739-32.511-8.208-44.625 1.178zm54.579 23.285c5.616-.214 10.959 1.244 15.051 4.103 8.217 5.747 8.416 15.445.449 21.618l-25.22 19.543-8.61-6.023-.517-.359L462.453 53.8c1.495-1.161 2.435-2.55 2.906-3.994.932-2.865-.097-5.985-3.161-8.13-4.279-2.992-12.623-1.758-13.397-1.159l-22.887 17.732-11.737-8.209c5.983-4.633 22.3-17.283 22.882-17.729.712-.554 1.58-7.107-2.22-9.765-1.81-1.268-4.047-1.984-6.364-2.204-3.587-.345-7.377.535-10.089 2.637l-20.353 15.768-.42-.29-8.714-6.095 25.221-19.54c7.967-6.173 21.137-6.523 29.355-.774 4.093 2.857 6.34 6.709 6.33 10.848l-.006 8.217 11.148-.427z"/>
    <path d="M406.368 7.401L378.64 28.88c-2.766 2.146-2.695 5.5.155 7.496l67.499 47.2c2.851 1.998 7.41 1.878 10.18-.267L484.2 61.826c12.111-9.381 11.803-24.127-.688-32.861-6.288-4.4-14.555-6.545-22.907-6.224.008-6.154-3.322-12.12-9.612-16.518-12.496-8.739-32.511-8.208-44.625 1.178zm54.579 23.285c5.616-.214 10.959 1.244 15.051 4.103 8.217 5.747 8.416 15.445.449 21.618l-25.22 19.543-8.61-6.023-.517-.359L462.453 53.8c1.495-1.161 2.435-2.55 2.906-3.994.932-2.865-.097-5.985-3.161-8.13-4.279-2.992-12.623-1.758-13.397-1.159l-22.887 17.732-11.737-8.209c5.983-4.633 22.3-17.283 22.882-17.729.712-.554 1.58-7.107-2.22-9.765-1.81-1.268-4.047-1.984-6.364-2.204-3.587-.345-7.377.535-10.089 2.637l-20.353 15.768-.42-.29-8.714-6.095 25.221-19.54c7.967-6.173 21.137-6.523 29.355-.774 4.093 2.857 6.34 6.709 6.33 10.848l-.006 8.217 11.148-.427zM0 123.496c3.729-.787 9.616-1.373 15.604-1.373 8.538 0 14.03 1.471 18.154 4.805 3.433 2.553 5.492 6.479 5.492 11.682 0 6.375-4.218 11.967-11.186 14.52v.199c6.281 1.566 13.64 6.77 13.64 16.582 0 5.691-2.258 10.008-5.593 13.245-4.612 4.222-12.07 6.184-22.863 6.184-5.888 0-10.401-.396-13.248-.784v-65.06zm8.537 27.08h7.753c9.028 0 14.327-4.707 14.327-11.087 0-7.753-5.888-10.793-14.523-10.793-3.925 0-6.184.294-7.557.586v21.294zm0 31.699c1.668.294 4.122.389 7.165.389 8.831 0 16.974-3.236 16.974-12.852 0-9.028-7.75-12.758-17.072-12.758H8.537v25.221zM68.857 123.496c4.317-.883 10.499-1.373 16.389-1.373 9.126 0 15.013 1.667 19.135 5.394 3.334 2.944 5.2 7.459 5.2 12.562 0 8.733-5.495 14.525-12.463 16.879v.294c5.104 1.765 8.145 6.478 9.714 13.346 2.16 9.224 3.729 15.601 5.105 18.153h-8.832c-1.079-1.865-2.55-7.557-4.418-15.8-1.962-9.126-5.492-12.559-13.245-12.853h-8.048v28.652h-8.537v-65.254zm8.538 30.126h8.734c9.126 0 14.917-5.007 14.917-12.562 0-8.537-6.184-12.266-15.212-12.364-4.119 0-7.066.392-8.439.784v24.142zM145.545 122.613v39.151c0 14.817 6.576 21.099 15.408 21.099 9.812 0 16.092-6.48 16.092-21.099v-39.151h8.633v38.562c0 20.312-10.695 28.653-25.02 28.653-13.544 0-23.748-7.753-23.748-28.261v-38.955h8.635zM215.895 188.75v-66.137h9.322l21.193 33.461c4.909 7.75 8.734 14.716 11.875 21.488l.196-.098c-.782-8.83-.981-16.877-.981-27.182v-27.67h8.048v66.137h-8.636l-21-33.561c-4.609-7.359-9.028-14.913-12.363-22.08l-.294.101c.49 8.339.687 16.29.687 27.28v28.26h-8.047zM351.844 159.703c-.49-9.222-1.078-20.312-.983-28.555h-.291c-2.259 7.752-5.007 15.993-8.342 25.121l-11.679 32.088h-6.475l-10.695-31.502c-3.144-9.318-5.791-17.854-7.655-25.707h-.196c-.195 8.242-.686 19.333-1.274 29.243l-1.766 28.358h-8.147l4.612-66.137h10.894l11.283 31.99c2.749 8.145 5.005 15.404 6.674 22.272h.292c1.67-6.672 4.026-13.935 6.969-22.272l11.773-31.99h10.894l4.122 66.137h-8.341l-1.669-29.046zM447.166 154.995c0 22.763-13.834 34.834-30.715 34.834-17.465 0-29.732-13.539-29.732-33.56 0-21 13.052-34.735 30.715-34.735 18.056 0 29.732 13.833 29.732 33.461zm-51.32 1.079c0 14.13 7.654 26.789 21.098 26.789 13.539 0 21.194-12.463 21.194-27.476 0-13.149-6.87-26.888-21.096-26.888-14.133.001-21.196 13.05-21.196 27.575zM474.172 188.75v-66.137h9.324l21.194 33.461c4.906 7.75 8.733 14.716 11.875 21.488l.196-.098c-.785-8.83-.981-16.877-.981-27.182v-27.67h8.048v66.137h-8.636l-20.998-33.561c-4.614-7.359-9.03-14.913-12.368-22.08l-.294.101c.49 8.339.687 16.29.687 27.28v28.26h-8.047zM567.418 129.875h-20.12v-7.262h48.97v7.262h-20.214v58.875h-8.636v-58.875zM622.812 167.949l-6.868 20.801h-8.834l22.475-66.137h10.3l22.569 66.137h-9.123l-7.063-20.801h-23.456zm21.684-6.675l-6.479-19.036c-1.471-4.318-2.454-8.244-3.43-12.068h-.198c-.979 3.923-2.058 7.946-3.335 11.971l-6.48 19.134h19.922zM735.195 185.803c-3.825 1.379-11.377 3.635-20.309 3.635-10.012 0-18.252-2.553-24.73-8.734-5.686-5.494-9.219-14.326-9.219-24.629.096-19.726 13.641-34.147 35.814-34.147 7.655 0 13.641 1.667 16.484 3.04l-2.06 6.969c-3.53-1.572-7.946-2.848-14.623-2.848-16.092 0-26.591 10.01-26.591 26.594 0 16.781 10.109 26.689 25.512 26.689 5.596 0 9.423-.783 11.385-1.766v-19.723h-13.441v-6.868h21.777v31.788zM764.072 188.75v-66.137h9.322l21.191 33.461c4.906 7.75 8.734 14.716 11.877 21.488l.199-.098c-.787-8.83-.986-16.877-.986-27.182v-27.67h8.045v66.137h-8.631l-21-33.561c-4.612-7.359-9.028-14.913-12.362-22.08l-.294.101c.484 8.339.684 16.29.684 27.28v28.26h-8.045zM878.477 157.741H852.77v23.847h28.652v7.162h-37.188v-66.137h35.711v7.162H852.77v20.902h25.707v7.064z"/>
</svg>