<svg xmlns="http://www.w3.org/2000/svg" version="1.1" id="Layer_1" x="0px" y="0px" viewBox="0 0 512 512"
     style="enable-background:new 0 0 512 512;" xml:space="preserve">
<path style="fill:#130f40;"
      d="M434.919,216.615h-37.063v78.769h37.063c12.43,0,22.505-10.077,22.505-22.506v-33.758  C457.424,226.692,447.348,216.615,434.919,216.615z"/>
    <polygon style="fill:#130f40;" points="322.594,397.661 322.594,512 288.836,512 243.825,397.661 "/>
    <rect x="155.648" y="397.661" style="fill:#130f40;" width="133.188" height="114.339"/>
    <polygon style="fill:#130f40;" points="322.594,114.339 322.594,0 288.836,0 243.825,114.339 "/>
    <rect x="155.648" style="fill:#130f40;" width="133.188" height="114.339"/>
    <path style="fill:#FFE777;"
          d="M423.666,256c0-49.424-19.533-94.37-51.28-127.531c0.01,0.007-21.224-72.052-21.224-72.052  c-2.276-7.727-9.595-12.595-17.312-12.074l-11.255-0.038v47.138c-25.081-12.775-53.451-19.987-83.474-19.987  s-58.393,7.212-83.474,19.986V44.303l-11.255,0.038c-7.717-0.521-15.035,4.347-17.312,12.074l-21.234,72.06  c-31.737,33.154-51.27,78.1-51.27,127.524s19.533,94.37,51.28,127.531c-0.01-0.007,21.224,72.052,21.224,72.052  c2.278,7.727,9.595,12.595,17.312,12.074l11.255,0.038v-47.138c25.081,12.775,53.451,19.986,83.474,19.986  s58.393-7.212,83.474-19.986v47.138l11.255-0.038c7.717,0.521,15.035-4.347,17.312-12.074l21.234-72.06  C404.133,350.37,423.666,305.424,423.666,256z"/>
    <path style="fill:#D5F6F5;"
          d="M240.629,105.224v301.551c82.46-0.81,149.279-68.135,149.279-150.776  S323.089,106.035,240.629,105.224z"/>
    <path style="fill:#FFFFFF;"
          d="M240.629,105.224c63.837,1.047,115.521,68.282,115.521,150.776s-51.684,149.729-115.521,150.776  c-0.495,0.011-1.001,0.011-1.508,0.011c-83.147,0-150.787-67.64-150.787-150.787s67.64-150.787,150.787-150.787  C239.627,105.213,240.134,105.213,240.629,105.224z"/>
    <path style="fill:#4D4D4D;"
          d="M311.138,264.44h-72.018c-4.662,0-8.44-3.778-8.44-8.44v-49.512c0-4.662,3.778-8.44,8.44-8.44  s8.44,3.778,8.44,8.44v41.073h63.578c4.662,0,8.44,3.778,8.44,8.44C319.578,260.662,315.801,264.44,311.138,264.44z"/>
    <g>
	<path style="fill:#81E3E2;"
          d="M239.121,158.664c-4.662,0-8.44-3.778-8.44-8.44v-11.253c0-4.662,3.778-8.44,8.44-8.44   s8.44,3.778,8.44,8.44v11.253C247.56,154.886,243.783,158.664,239.121,158.664z"/>
        <path style="fill:#81E3E2;"
              d="M186.241,172.837c-2.917,0-5.752-1.513-7.317-4.221l-5.626-9.745   c-2.33-4.036-0.947-9.198,3.089-11.528c4.034-2.329,9.197-0.947,11.528,3.089l5.626,9.745c2.33,4.036,0.947,9.198-3.089,11.528   C189.124,172.472,187.672,172.837,186.241,172.837z"/>
        <path style="fill:#81E3E2;"
              d="M147.509,211.553c-1.431,0-2.883-0.365-4.212-1.132l-9.745-5.626   c-4.036-2.33-5.419-7.492-3.089-11.528c2.329-4.037,7.49-5.418,11.528-3.089l9.745,5.626c4.036,2.33,5.419,7.492,3.089,11.528   C153.262,210.039,150.426,211.553,147.509,211.553z"/>
        <path style="fill:#81E3E2;"
              d="M133.345,264.44h-11.253c-4.662,0-8.44-3.778-8.44-8.44c0-4.662,3.778-8.44,8.44-8.44h11.253   c4.662,0,8.44,3.778,8.44,8.44C141.785,260.662,138.007,264.44,133.345,264.44z"/>
        <path style="fill:#81E3E2;"
              d="M137.779,322.955c-2.917,0-5.752-1.513-7.317-4.221c-2.33-4.036-0.947-9.198,3.089-11.528   l9.745-5.626c4.035-2.328,9.197-0.949,11.528,3.089c2.33,4.036,0.947,9.198-3.089,11.528l-9.745,5.626   C140.663,322.59,139.211,322.955,137.779,322.955z"/>
        <path style="fill:#81E3E2;"
              d="M180.599,365.79c-1.431,0-2.883-0.365-4.212-1.132c-4.036-2.33-5.419-7.492-3.089-11.528   l5.626-9.745c2.328-4.037,7.49-5.419,11.528-3.089c4.036,2.33,5.419,7.492,3.089,11.528l-5.626,9.745   C186.352,364.277,183.515,365.79,180.599,365.79z"/>
        <path style="fill:#81E3E2;"
              d="M239.121,381.468c-4.662,0-8.44-3.778-8.44-8.44v-11.253c0-4.662,3.778-8.44,8.44-8.44   s8.44,3.778,8.44,8.44v11.253C247.56,377.691,243.783,381.468,239.121,381.468z"/>
        <path style="fill:#81E3E2;"
              d="M297.643,365.79c-2.917,0-5.752-1.513-7.317-4.221l-5.626-9.745   c-2.33-4.036-0.947-9.198,3.089-11.528c4.034-2.329,9.197-0.949,11.528,3.089l5.626,9.745c2.33,4.036,0.948,9.198-3.089,11.528   C300.526,365.425,299.074,365.79,297.643,365.79z"/>
        <path style="fill:#81E3E2;"
              d="M340.463,322.955c-1.431,0-2.883-0.365-4.212-1.132l-9.745-5.626   c-4.036-2.33-5.419-7.492-3.089-11.528c2.329-4.038,7.489-5.419,11.528-3.089l9.745,5.626c4.036,2.33,5.419,7.492,3.089,11.528   C346.217,321.441,343.379,322.955,340.463,322.955z"/>
        <path style="fill:#81E3E2;"
              d="M356.149,264.44h-11.253c-4.662,0-8.44-3.778-8.44-8.44c0-4.662,3.778-8.44,8.44-8.44h11.253   c4.662,0,8.44,3.778,8.44,8.44C364.589,260.662,360.811,264.44,356.149,264.44z"/>
        <path style="fill:#81E3E2;"
              d="M330.733,211.553c-2.917,0-5.752-1.514-7.317-4.221c-2.33-4.036-0.947-9.198,3.089-11.528   l9.745-5.626c4.035-2.328,9.197-0.949,11.528,3.089c2.33,4.036,0.947,9.198-3.089,11.528l-9.745,5.626   C333.617,211.188,332.165,211.553,330.733,211.553z"/>
        <path style="fill:#81E3E2;"
              d="M292.001,172.837c-1.431,0-2.883-0.365-4.212-1.132c-4.036-2.33-5.419-7.492-3.089-11.528   l5.626-9.745c2.328-4.037,7.489-5.419,11.528-3.089c4.036,2.33,5.419,7.492,3.089,11.528l-5.626,9.745   C297.754,171.323,294.918,172.837,292.001,172.837z"/>
</g>
    <g>
</g>
    <g>
</g>
    <g>
</g>
    <g>
</g>
    <g>
</g>
    <g>
</g>
    <g>
</g>
    <g>
</g>
    <g>
</g>
    <g>
</g>
    <g>
</g>
    <g>
</g>
    <g>
</g>
    <g>
</g>
    <g>
</g>
</svg>