<svg width="64" height="65" viewBox="0 0 64 65" fill="none" xmlns="http://www.w3.org/2000/svg">
<path d="M64 32.5194C64 50.1935 49.673 64.5194 32 64.5194C14.327 64.5194 0 50.1935 0 32.5194C0 14.8469 14.327 0.52 32 0.52C49.673 0.52 64 14.8469 64 32.5194Z" fill="#B2D97E"/>
<path d="M17.3181 45.6585C16.997 45.2016 16.5591 44.4605 16.3503 43.4803C15.9786 41.731 16.5737 40.351 18.1512 36.5548C18.4533 35.8295 19.0989 34.2755 19.9781 32.1388C19.6771 31.7447 19.2404 31.1013 18.8979 30.2356C17.9941 27.9552 18.5341 26.1497 20.0982 20.3123C21.5792 14.7816 21.8386 13.6247 23.1668 12.1528C23.7911 11.4612 24.9465 10.2139 26.9103 9.696C29.011 9.14189 30.7929 9.75079 31.4812 10.0289C32.4098 9.6659 33.9727 9.22622 35.7423 9.60775C38.6863 10.2427 40.2616 12.7322 41.5056 14.6979C42.4432 16.179 43.1214 19.4196 44.4788 25.9005C44.8561 27.7071 45.2906 29.9302 44.0511 31.2406C43.6603 31.6537 43.2067 31.8671 42.8822 31.9839C43.4436 34.1004 44.1218 35.7352 44.6495 36.8546C45.7442 39.1754 46.7267 40.4173 46.8738 42.5562C46.9546 43.7307 46.7514 44.7131 46.5661 45.361C36.8168 45.4598 27.0675 45.5597 17.3181 45.6585Z" fill="#64312B"/>
<path d="M24.329 32.3633C23.7159 32.269 23.2297 32.1175 22.8862 31.9895C22.2069 31.7346 22.089 31.5718 22.0441 31.446C21.9363 31.1473 22.1496 30.824 22.3293 30.55C22.7694 29.8797 23.1972 29.2251 23.6912 28.4706C23.7013 28.6491 23.7159 28.8422 23.735 29.05C23.8158 29.937 23.9809 31.0744 24.329 32.3633Z" fill="#2B1817"/>
<path d="M38.6144 32.2589C38.6852 31.9322 38.7627 31.5684 38.8491 31.1653C39.0153 30.3928 39.1556 29.7136 39.269 29.1623C39.3151 28.9377 39.3611 28.712 39.4072 28.4875C39.8967 29.2341 40.3211 29.8842 40.759 30.55C40.9387 30.824 41.152 31.1474 41.0431 31.446C41.0094 31.5403 40.9039 31.7514 40.201 31.9895C39.8462 32.1096 39.3095 32.2466 38.6144 32.2589Z" fill="#2B1817"/>
<path d="M24.9634 45.3127C25.0386 48.2107 25.3743 51.7902 26.3107 55.793C27.1618 59.4298 28.2992 62.5197 29.3985 65C30.8604 65 32.3222 65 33.7853 65C35.4706 61.6664 37.3288 56.8664 37.8543 50.9088C38.0272 48.945 38.0328 47.1193 37.9396 45.4632C33.6135 45.4126 29.2884 45.3632 24.9634 45.3127Z" fill="white"/>
<path d="M37.9397 43.0862L25.2531 43.4421L25.3373 45.4632C26.0053 45.983 28.3834 47.7054 31.8495 47.6336C35.0563 47.5673 37.2424 46.0066 37.9397 45.4632C37.9397 44.6705 37.9397 43.8789 37.9397 43.0862Z" fill="#EF5E36"/>
<path d="M21.2345 44.2202C18.5128 45.1488 16.3761 46.0178 14.8581 46.6792C14.0149 47.0463 12.6967 47.6403 12.5002 48.7002C12.4261 49.1033 12.562 49.3121 12.6686 50.0476C12.7899 50.8852 12.7349 51.4848 12.6237 52.6817C12.4182 54.8914 11.9017 57.1662 11.7142 57.9634C13.0627 59.1356 14.9434 60.5279 17.3889 61.7169C19.0664 62.5321 20.6327 63.0676 21.9688 63.4281C22.9423 62.4052 23.9158 61.3812 24.8881 60.3583L25.7123 54.0425L21.2345 44.2202Z" fill="#D6D4B8"/>
<path d="M25.244 43.0862C25.2979 45.544 25.4899 48.2432 25.902 51.1356C26.6722 56.5542 28.0084 61.215 29.3984 65C28.2801 64.9315 26.9833 64.7799 25.5618 64.4756C24.1931 64.1826 22.9894 63.8076 21.9688 63.4281C21.221 61.681 20.4721 59.935 19.7232 58.1879L24.5614 55.7178L19.274 54.7443C19.9275 51.2366 20.581 47.729 21.2345 44.2202C22.5706 43.8429 23.9079 43.4646 25.244 43.0862Z" fill="#EBEDDD"/>
<path d="M16.6176 61.3509C17.079 55.5796 17.2362 54.3479 17.2913 54.3513C17.3395 54.3547 17.3182 55.3641 17.2722 57.3829C17.2329 59.1333 17.1846 60.584 17.1464 61.6013C16.9701 61.5182 16.7938 61.434 16.6176 61.3509Z" fill="#B7B7A0"/>
<path d="M12.6204 48.3319C14.7503 51.0256 15.8327 52.3583 15.8686 52.3303C15.9057 52.3022 14.8716 50.8841 12.7697 48.0748C12.7192 48.1602 12.6698 48.2466 12.6204 48.3319Z" fill="#B7B7A0"/>
<path d="M41.9491 44.2202C44.6708 45.1488 46.8064 46.0178 48.3256 46.6792C49.1677 47.0463 50.487 47.6403 50.6835 48.7002C50.7576 49.1033 50.6206 49.3121 50.5151 50.0476C50.3938 50.8852 50.4488 51.4848 50.56 52.6817C50.7643 54.8914 51.2808 57.1673 51.4694 57.9634C50.1198 59.1356 48.2402 60.5279 45.7948 61.7169C44.1173 62.5321 42.551 63.0676 41.2137 63.4281C40.2413 62.4052 39.2679 61.3812 38.2944 60.3583L37.4714 54.0425L41.9491 44.2202Z" fill="#D6D4B8"/>
<path d="M37.9397 43.0862C37.8858 45.544 37.6926 48.2432 37.2817 51.1356C36.5103 56.5542 35.1753 61.215 33.7853 65C34.9036 64.9315 36.1993 64.7799 37.6208 64.4756C38.9895 64.1826 40.1943 63.8076 41.2138 63.4281C41.9627 61.681 42.7116 59.935 43.4594 58.1879L38.6223 55.7178L43.9085 54.7443C43.2562 51.2366 42.6027 47.729 41.9492 44.2202C40.6131 43.8429 39.2758 43.4646 37.9397 43.0862Z" fill="#EBEDDD"/>
<path d="M46.5662 61.3509C46.1036 55.5796 45.9475 54.3479 45.8925 54.3513C45.8442 54.3547 45.8656 55.3641 45.9116 57.3829C45.9509 59.1333 45.9992 60.584 46.0374 61.6013C46.2136 61.5182 46.3899 61.434 46.5662 61.3509Z" fill="#B7B7A0"/>
<path d="M50.5633 48.3319C48.4334 51.0256 47.351 52.3583 47.315 52.3303C47.278 52.3022 48.311 50.8841 50.414 48.0748C50.4634 48.1602 50.5139 48.2466 50.5633 48.3319Z" fill="#B7B7A0"/>
<path d="M37.9509 43.0862C37.6601 43.4309 35.2472 46.1986 31.3072 46.0616C27.7086 45.9359 25.5764 43.4826 25.2441 43.0862C25.6752 42.8324 26.9867 41.987 27.6581 40.2792C28.1746 38.9655 28.0533 37.8011 27.9646 37.2779H35.3022C35.2135 37.6013 34.7037 39.5864 35.9085 41.3851C36.087 41.6501 36.2802 41.8792 36.4778 42.0768C37.0336 42.6337 37.6174 42.9369 37.9509 43.0862Z" fill="#F4AB86"/>
<path d="M36.4777 42.0768C35.246 41.8938 33.2048 41.4222 31.0827 40.0546C29.6432 39.1261 28.6305 38.0852 27.9658 37.279C29.019 37.8202 30.2316 38.1481 31.4756 38.1649C31.5093 38.1649 31.543 38.1661 31.5767 38.1661C32.8544 38.1661 34.167 37.8416 35.2921 37.2779H35.3022C35.2595 37.4329 35.1203 37.9718 35.1191 38.6904C35.1191 39.4663 35.2831 40.451 35.9085 41.3851C36.087 41.6501 36.2801 41.8792 36.4777 42.0768Z" fill="#D17859"/>
<path d="M39.4105 28.4706C39.3634 28.7008 39.3162 28.9321 39.269 29.1622C39.1556 29.7135 39.0153 30.3928 38.8491 31.1653C38.3977 33.2706 38.1721 34.3227 38.0598 34.5865C37.1481 36.7322 34.2175 38.202 31.4756 38.1649C28.7046 38.1267 26.0862 36.5469 25.0498 34.5012C24.7433 33.8949 24.5603 33.2201 24.329 32.3634C23.9809 31.0744 23.8158 29.937 23.735 29.05C23.7159 28.8422 23.7013 28.6491 23.6912 28.4706C24.0528 27.798 24.6175 26.6584 25.1127 25.1774C25.3687 24.4105 25.5607 23.6886 25.7145 23.0104C25.8043 22.6151 25.8807 22.2334 25.9492 21.8674C26.432 19.2905 26.5263 17.4278 28.0387 16.1646C28.3453 15.9074 29.0234 15.3584 29.8285 15.4842C30.9322 15.656 31.4835 16.9719 31.5621 17.1684C31.9573 16.1163 32.7354 15.4045 33.5719 15.3629C34.3545 15.3248 34.9429 15.8873 35.2561 16.1949C36.5361 17.4547 36.6978 19.2321 36.7528 19.7509C36.8224 20.4032 36.946 21.1622 37.1559 22.0515C37.248 22.4434 37.3569 22.861 37.4872 23.3057C37.8981 24.7283 38.5089 26.4293 39.4105 28.4706Z" fill="#F4AB86"/>
<path d="M39.269 29.1622C38.967 28.6738 38.5179 27.8968 38.0777 26.8953C37.221 24.9427 36.8101 23.0744 36.4721 21.5002C36.0095 19.3466 35.9949 18.5629 35.2359 17.457C34.8632 16.9124 34.2535 16.0243 33.4282 16.0243C33.4046 16.0243 33.381 16.025 33.3563 16.0265C32.6164 16.0725 31.9236 16.8293 31.616 17.9072C31.552 17.7702 30.8502 16.3128 29.623 16.2511C29.6084 16.2503 29.5871 16.2494 29.5579 16.2494C29.3771 16.2494 28.9291 16.287 28.416 16.644C26.8688 17.7197 26.7554 20.2797 26.5241 21.8831C26.2714 23.6448 25.6056 26.1239 23.735 29.05C23.7204 28.8568 23.7058 28.6637 23.6912 28.4706C24.0528 27.798 24.6175 26.6584 25.1127 25.1774C25.3687 24.4105 25.5607 23.6885 25.7145 23.0104C25.8043 22.6151 25.8807 22.2334 25.9492 21.8674C26.432 19.2905 26.5263 17.4278 28.0387 16.1646C28.3149 15.9332 28.8909 15.4657 29.5904 15.4657C29.6679 15.4657 29.7476 15.4715 29.8285 15.4842C30.9322 15.656 31.4835 16.9719 31.5621 17.1684C31.9573 16.1163 32.7354 15.4045 33.5719 15.3629C33.5977 15.3617 33.6225 15.3611 33.6472 15.3611C34.3927 15.3611 34.953 15.8973 35.2561 16.1949C36.5361 17.4547 36.6978 19.2321 36.7528 19.7509C36.8224 20.4032 36.946 21.1622 37.1559 22.0515C37.248 22.4433 37.3569 22.861 37.4872 23.3057C37.8981 24.7283 38.5089 26.4293 39.4105 28.4706C39.3634 28.7008 39.3162 28.9321 39.269 29.1622Z" fill="#D57F5F"/>
<path d="M31.2645 26.8919L30.3293 30.157C30.29 30.2963 30.3203 30.4467 30.4101 30.5601C30.7009 30.9262 31.15 31.1395 31.6205 31.1215C32.165 31.1013 32.5266 30.7791 32.7107 30.5579C32.8062 30.4445 32.8365 30.2895 32.7938 30.1481C32.4716 29.0623 32.1493 27.9777 31.8259 26.8919C31.8192 26.7493 31.7204 26.6337 31.6014 26.6112C31.4521 26.5831 31.2825 26.7044 31.2645 26.8919Z" fill="#C96C4F"/>
<path d="M29.806 22.6915C29.7196 22.8431 29.5253 22.9172 29.3468 22.8577C29.1122 22.7162 28.3071 22.2704 27.2236 22.4108C26.5634 22.4961 26.0559 22.7645 25.7145 23.0104C25.8044 22.6151 25.8807 22.2334 25.9492 21.8674C26.2849 21.6989 26.6869 21.5631 27.1529 21.5126C28.4733 21.3688 29.422 22.0077 29.6511 22.1716C29.8397 22.2806 29.9026 22.5175 29.806 22.6915Z" fill="#5C2923"/>
<path d="M37.4872 23.3057C37.1649 23.0283 36.5765 22.6297 35.7457 22.5231C34.6622 22.3827 33.8571 22.8285 33.6224 22.9699C33.4428 23.0306 33.2497 22.9553 33.1632 22.8038C33.0655 22.6297 33.1295 22.3928 33.3181 22.2839C33.5472 22.12 34.496 21.4811 35.8164 21.6248C36.3475 21.6821 36.7944 21.8505 37.1559 22.0515C37.248 22.4433 37.3569 22.861 37.4872 23.3057Z" fill="#5C2923"/>
<path d="M25.2441 25.5513C25.6775 24.4622 26.8284 23.8873 27.8456 24.1669C28.6844 24.397 29.3142 25.1763 29.3985 26.1127C29.3412 25.978 28.9055 24.9944 27.8265 24.6912C26.9081 24.4319 25.8908 24.7698 25.2441 25.5513Z" fill="#391D1D"/>
<path d="M37.9509 25.5513C37.5174 24.4622 36.3654 23.8873 35.3493 24.1669C34.5106 24.397 33.8807 25.1763 33.7964 26.1127C33.8526 25.978 34.2894 24.9944 35.3684 24.6912C36.2868 24.4319 37.3041 24.7698 37.9509 25.5513Z" fill="#391D1D"/>
<path d="M28.3599 26.4742C28.3599 27.1692 27.977 27.7318 27.5043 27.7318C27.0305 27.7318 26.6476 27.1692 26.6476 26.4742C26.6476 25.7803 27.0305 25.2167 27.5043 25.2167C27.977 25.2167 28.3599 25.7803 28.3599 26.4742Z" fill="#271616"/>
<path d="M27.9646 25.9319C27.9646 26.0285 27.8861 26.106 27.7906 26.106C27.6941 26.106 27.6166 26.0285 27.6166 25.9319C27.6166 25.8354 27.6941 25.7579 27.7906 25.7579C27.8861 25.7579 27.9646 25.8354 27.9646 25.9319Z" fill="white"/>
<path d="M36.4777 26.4742C36.4777 27.1692 36.0937 27.7318 35.621 27.7318C35.1483 27.7318 34.7654 27.1692 34.7654 26.4742C34.7654 25.7803 35.1483 25.2167 35.621 25.2167C36.0937 25.2167 36.4777 25.7803 36.4777 26.4742Z" fill="#271616"/>
<path d="M36.0825 25.9319C36.0825 26.0285 36.0039 26.106 35.9085 26.106C35.8119 26.106 35.7333 26.0285 35.7333 25.9319C35.7333 25.8354 35.8119 25.7579 35.9085 25.7579C36.0039 25.7579 36.0825 25.8354 36.0825 25.9319Z" fill="white"/>
<path d="M28.425 32.0074C28.3778 32.0826 29.8026 33.7837 31.7563 33.7107C33.5685 33.6434 34.8104 32.086 34.7688 32.0265C34.7306 31.9715 33.6078 33.2167 31.9057 33.3177C29.9306 33.4356 28.4721 31.9344 28.425 32.0074Z" fill="#C96C4F"/>
</svg>
