<svg width="64" height="65" viewBox="0 0 64 65" fill="none" xmlns="http://www.w3.org/2000/svg">
<path d="M64 32.4123C64 50.0852 49.673 64.4121 32 64.4121C14.327 64.4121 0 50.0852 0 32.4123C0 14.7393 14.327 0.412262 32 0.412262C49.673 0.412262 64 14.7393 64 32.4123Z" fill="#F0D4C2"/>
<path d="M43.1528 40.0148L55.4588 47.3247C55.9977 47.6447 56.4143 48.1346 56.6434 48.7174L57.7493 51.5236C56.6827 52.9586 48.0539 64.16 32.823 64.6604C16.3009 65.2032 6.62007 52.673 5.76337 51.5236C6.31691 50.3867 6.86933 49.2498 7.42287 48.1128C7.65866 47.6272 8.0292 47.2196 8.49067 46.9382L20.4721 39.6218L43.1528 40.0148Z" fill="#4A2A2D"/>
<path d="M25.7572 36.9046L20.4721 39.6218C20.5148 40.6728 20.764 43.271 22.6054 45.7973C23.9854 47.6904 25.6404 48.6934 26.5656 49.1657C26.1558 47.706 25.7471 46.2464 25.3372 44.7867H38.6459L37.4647 49.1657C38.6099 48.3916 40.7994 46.6686 42.1423 43.6639C42.7576 42.2863 43.0304 41.0107 43.1528 40.0148C41.5831 39.0761 40.0123 38.1386 38.4426 37.1999L25.7572 36.9046Z" fill="#9F7573"/>
<path d="M25.3373 44.7867H38.6459L37.4648 49.1657L36.0422 49.5774C36.4351 52.3218 36.7506 55.2724 36.9404 58.4101C37.0617 60.4234 37.1223 62.3622 37.1335 64.2196C35.9074 64.5882 34.203 64.9618 32.1494 64.9973C29.8252 65.0374 27.913 64.6298 26.5982 64.2408C26.9014 59.328 27.2056 54.4152 27.5088 49.5025L26.5656 49.1657L25.3373 44.7867Z" fill="white"/>
<path d="M55.8641 47.6218C54.9894 48.8592 54.062 50.3455 53.1952 52.085C52.0702 54.3439 51.3358 56.4478 50.8474 58.2223C50.7441 58.2973 50.6408 58.3723 50.5375 58.4472C51.0282 56.3375 51.8557 53.7512 53.2974 50.9964C54.0182 49.6187 54.7828 48.4105 55.5261 47.3662C55.6384 47.4514 55.7518 47.5366 55.8641 47.6218Z" fill="#171312"/>
<path d="M7.65082 47.6218C8.52548 48.8592 9.45293 50.3455 10.3197 52.085C11.4448 54.3439 12.1791 56.4478 12.6675 58.2223C12.7708 58.2973 12.8741 58.3723 12.9774 58.4472C12.489 56.3446 11.6637 53.756 10.2176 50.9964C9.47539 49.5815 8.6883 48.3464 7.92479 47.285C7.83384 47.3973 7.74177 47.5095 7.65082 47.6218Z" fill="#171312"/>
<path d="M39.186 41.6428C39.0052 42.6904 38.8256 43.7391 38.6459 44.7867C37.6668 45.228 36.4811 45.6457 35.1057 45.9095C30.7761 46.7404 27.154 45.548 25.3373 44.7867C25.1632 43.7515 24.9881 42.7162 24.814 41.6799C25.2856 40.0541 25.7168 38.0162 25.8639 35.6493C25.9391 34.449 25.9301 33.3341 25.8706 32.3224C25.8582 32.0934 25.8425 31.8688 25.8246 31.6499C28.7966 31.6319 31.7687 31.6139 34.7408 31.5948C35.8355 31.5881 36.9303 31.5814 38.025 31.5746C38.0272 31.6734 38.0295 31.7734 38.0329 31.8733C38.0351 31.962 38.0385 32.0507 38.0418 32.1405C38.0867 33.5193 38.1867 34.9857 38.363 36.5296C38.4157 36.9989 38.4752 37.4761 38.5426 37.96C38.6482 38.7078 38.7649 39.4332 38.8918 40.136C38.985 40.6503 39.0827 41.1533 39.186 41.6428Z" fill="#EB8555"/>
<path d="M38.4426 37.1999C37.9407 37.4447 36.9066 37.5716 35.292 37.5716C35.2853 37.5727 30.1114 37.8388 25.8706 32.3225C25.5764 31.9396 25.2856 31.5208 25.2856 31.5208C25.0936 31.2434 24.924 30.9852 24.7758 30.7517C28.0971 31.0324 31.4195 31.3142 34.7407 31.5949C35.8377 31.6881 36.9358 31.7813 38.0328 31.8733C38.0351 31.962 38.0384 32.0519 38.0418 32.1406C38.1035 33.8663 38.2405 35.5539 38.4426 37.1999Z" fill="#B85E47"/>
<path d="M22.3247 21.3762L20.3946 17.9404C20.0466 17.3206 20.0499 16.5627 20.4025 15.9452L21.3097 14.3587C21.0953 14.4126 20.8 14.4844 20.444 14.5552C19.7097 14.7022 19.6379 14.6674 19.6019 14.6394C19.2965 14.3991 19.8186 13.1853 20.1633 12.5622C20.6506 11.6797 21.8509 10.0404 25.015 8.85692C24.6748 8.78169 24.1729 8.67727 23.5598 8.57622C21.8464 8.2944 21.385 8.38647 21.3142 8.18324C21.1368 7.67236 23.6609 5.93651 26.5914 5.23588C28.7203 4.72612 30.5864 4.8777 31.8405 5.09552C31.6474 4.84739 31.3779 4.45216 31.1669 3.91658C30.9793 3.43939 30.8783 3.18451 30.9704 2.99026C31.2735 2.35027 33.4686 2.81286 33.637 2.84991C34.7239 3.08683 36.7225 3.77061 38.8536 6.16219C39.1017 4.96303 39.3117 4.36795 39.4824 4.37918C39.7013 4.39265 39.8574 5.39868 39.9506 7.39728C42.249 7.86436 42.8104 8.18549 42.7991 8.40668C42.7946 8.50773 42.5959 8.62562 42.1984 8.85692C41.7605 9.1118 41.3709 9.29369 41.0745 9.41833C43.0473 10.4536 43.9837 11.1093 43.8826 11.3832C43.8175 11.5595 43.3224 11.5786 42.3949 11.4394C42.8732 11.8795 43.6457 12.7295 43.8826 13.9657C43.9365 14.2498 44.0881 15.2064 43.0922 17.653C42.6891 18.6433 42.0446 20.0086 41.0206 21.53L22.3247 21.3762Z" fill="#4A2A2D"/>
<path d="M41.0206 21.53C41.2722 21.3627 41.9627 20.9518 42.6835 21.1539C43.7872 21.4638 44.1645 22.9885 44.1667 23.8071C44.1712 25.5451 42.487 27.263 39.9506 28.1175C40.3066 25.9224 40.6636 23.7262 41.0206 21.53Z" fill="#EB8555"/>
<path d="M41.1677 26.275C41.2138 25.7832 41.5091 22.7999 42.4051 22.6977C42.4208 22.6966 42.4365 22.6955 42.4533 22.6955C42.5623 22.6955 42.6936 22.7382 42.8497 22.8628C42.9395 22.9751 43.0642 23.1615 43.127 23.4163C43.2326 23.8452 43.1001 24.2023 43.0215 24.4123C42.6386 25.4396 41.3507 26.1728 41.1677 26.275Z" fill="#CD6851"/>
<path d="M42.3298 22.5552C41.7314 22.5641 41.3271 23.9463 41.262 24.1798C40.9532 25.2858 41.1026 26.2727 41.1677 26.275C41.2261 26.2772 41.225 25.4811 41.5854 24.2629C41.9245 23.1177 42.2175 22.8314 42.4713 22.8033C42.6554 22.7831 42.834 22.8954 42.8497 22.8628C42.8699 22.819 42.5971 22.5507 42.3298 22.5552Z" fill="#B6534D"/>
<path d="M42.2782 24.245C42.5791 24.7772 42.2501 25.4643 42.2007 25.4565C42.1513 25.4497 42.4051 24.7862 42.0559 24.3707C41.8594 24.1349 41.518 24.0384 41.5393 23.8497C41.5405 23.8419 41.5495 23.7734 41.6 23.7442C41.7392 23.6645 42.1064 23.9407 42.2782 24.245Z" fill="#B6534D"/>
<path d="M23.0164 21.5435C22.7683 21.3728 22.0834 20.9506 21.3592 21.1404C20.251 21.4323 19.849 22.9515 19.8344 23.7689C19.8018 25.5081 21.458 27.253 23.9809 28.1479C23.6587 25.946 23.3375 23.7453 23.0164 21.5435Z" fill="#EB8555"/>
<path d="M22.9378 26.2975C22.7559 26.1931 21.4804 25.4397 21.1144 24.4055C21.0392 24.1933 20.9123 23.8352 21.0246 23.4074C21.0919 23.1536 21.2188 22.9695 21.3109 22.8583C21.4658 22.7393 21.5949 22.6977 21.7039 22.6977C21.7218 22.6977 21.7398 22.6989 21.7577 22.7011C22.6515 22.8179 22.8996 25.8046 22.9378 26.2975Z" fill="#CD6851"/>
<path d="M21.8352 22.5596C22.4337 22.5787 22.8154 23.9676 22.8772 24.2023C23.168 25.3117 23.0029 26.2975 22.9378 26.2975C22.8794 26.2986 22.8929 25.5025 22.5527 24.2798C22.2327 23.1289 21.943 22.8381 21.6904 22.8055C21.5062 22.7819 21.3254 22.892 21.3109 22.8583C21.2906 22.8145 21.5691 22.5506 21.8352 22.5596Z" fill="#B6534D"/>
<path d="M21.8599 24.2506C21.5511 24.7772 21.8689 25.4688 21.9183 25.4632C21.9677 25.4565 21.7252 24.7895 22.08 24.3786C22.281 24.1473 22.6234 24.0552 22.6043 23.8666C22.6043 23.8587 22.5965 23.7902 22.5459 23.7599C22.4078 23.678 22.0373 23.9485 21.8599 24.2506Z" fill="#B6534D"/>
<path d="M41.5528 18.0639C41.3754 19.2035 41.1969 20.3443 41.0195 21.484C40.5513 24.4852 40.0842 27.4854 39.616 30.4866C39.5464 30.9391 39.3083 31.3478 38.949 31.6319C37.8767 32.4785 35.8243 33.7888 32.9723 34.0448C29.0796 34.394 26.1749 32.5549 24.9465 31.6072C24.5928 31.3332 24.3526 30.9403 24.2717 30.5012C23.9652 28.8339 23.671 27.1317 23.3926 25.3936C23.1759 24.0372 22.9749 22.6977 22.7885 21.3762L22.7874 21.3683C22.6212 20.1961 22.4674 19.0385 22.3248 17.8955C22.6571 17.0612 23.5048 15.2771 25.4125 13.9095C26.487 13.1392 27.5357 12.7597 28.2756 12.5621C28.0062 12.8889 27.7356 13.2145 27.4661 13.5412C26.7531 14.4035 26.0413 15.2658 25.3283 16.127C26.258 16.0541 27.5694 15.8362 29.0055 15.2007C30.3551 14.6034 31.3982 13.8197 32.1729 13.091V13.0898C32.7691 12.5273 33.2059 11.9962 33.4978 11.6077C33.1789 12.2949 32.7747 13.0562 32.2616 13.8534C31.8675 14.4653 31.4667 15.0065 31.0827 15.4814C31.845 15.4298 33.2688 15.2322 34.7879 14.3586C35.758 13.8006 36.4643 13.1415 36.9504 12.5879C37.1626 12.3477 37.3322 12.1276 37.4647 11.9446C38.0238 12.4375 38.6302 13.0483 39.223 13.7972C40.457 15.3568 41.152 16.904 41.5528 18.0639Z" fill="#EB8555"/>
<path d="M29.7297 19.1081C29.7824 19.1351 29.8318 19.171 29.87 19.217C29.9913 19.3652 30.0194 19.5763 29.9318 19.7526C29.9149 19.7863 29.8947 19.8177 29.8711 19.8469C29.7196 20.0299 29.4478 20.0591 29.2457 19.9345C28.8022 19.6605 28.1925 19.3765 27.4436 19.2967C26.1277 19.1564 25.0902 19.7223 25.0195 19.5606C24.9622 19.4315 25.5596 18.9408 26.2602 18.6859C27.6738 18.1739 29.0885 18.7758 29.7297 19.1081Z" fill="#381C1B"/>
<path d="M34.1389 19.1081C34.0862 19.1351 34.0368 19.171 33.9986 19.217C33.8773 19.3652 33.8493 19.5763 33.9368 19.7526C33.9537 19.7863 33.9739 19.8177 33.9975 19.8469C34.149 20.0299 34.4208 20.0591 34.6229 19.9345C35.0664 19.6605 35.6761 19.3765 36.425 19.2967C37.7409 19.1564 38.7784 19.7223 38.8491 19.5606C38.9064 19.4315 38.3102 18.9408 37.6084 18.6859C36.1948 18.1739 34.7801 18.7758 34.1389 19.1081Z" fill="#381C1B"/>
<path d="M27.6211 20.085C28.5934 19.7582 29.6365 20.6003 29.6039 20.6834C29.5759 20.7586 28.7068 20.2017 27.7142 20.497C26.9957 20.7104 26.6296 21.2448 26.5724 21.1887C26.5072 21.1247 26.8924 20.3286 27.6211 20.085Z" fill="#381C1B"/>
<path d="M36.4093 20.085C35.4358 19.7582 34.3938 20.6003 34.4263 20.6834C34.4544 20.7586 35.3224 20.2017 36.316 20.497C37.0347 20.7104 37.4007 21.2448 37.458 21.1887C37.5231 21.1247 37.138 20.3286 36.4093 20.085Z" fill="#381C1B"/>
<path d="M29.193 21.9657C29.193 22.6214 28.8572 23.1536 28.444 23.1536C28.0309 23.1536 27.6951 22.6214 27.6951 21.9657C27.6951 21.31 28.0309 20.7778 28.444 20.7778C28.8572 20.7778 29.193 21.31 29.193 21.9657Z" fill="#1E1414"/>
<path d="M28.6316 21.5536C28.6316 21.6524 28.5518 21.7321 28.453 21.7321C28.3554 21.7321 28.2756 21.6524 28.2756 21.5536C28.2756 21.4559 28.3554 21.3762 28.453 21.3762C28.5518 21.3762 28.6316 21.4559 28.6316 21.5536Z" fill="white"/>
<path d="M36.1544 21.9657C36.1544 22.6214 35.8187 23.1536 35.4055 23.1536C34.9923 23.1536 34.6566 22.6214 34.6566 21.9657C34.6566 21.31 34.9923 20.7778 35.4055 20.7778C35.8187 20.7778 36.1544 21.31 36.1544 21.9657Z" fill="#1E1414"/>
<path d="M35.5829 21.5536C35.5829 21.6524 35.5031 21.7321 35.4055 21.7321C35.3078 21.7321 35.2281 21.6524 35.2281 21.5536C35.2281 21.4559 35.3078 21.3762 35.4055 21.3762C35.5031 21.3762 35.5829 21.4559 35.5829 21.5536Z" fill="white"/>
<path d="M31.6497 22.6685L30.3641 26.0953C30.3326 26.1795 30.3596 26.2739 30.4303 26.3289C30.6728 26.5141 31.1994 26.842 31.9315 26.8409C32.6546 26.8386 33.1745 26.5186 33.4192 26.3323C33.4922 26.2761 33.5181 26.1773 33.4821 26.0909C32.9971 24.9478 32.5131 23.8048 32.0281 22.6607C31.9562 22.4912 31.7148 22.4968 31.6497 22.6685Z" fill="#B6534D"/>
<path d="M35.785 25.937C35.9062 25.7495 36.1611 25.7136 36.3183 25.8393C36.462 25.955 36.4923 26.1818 36.3688 26.3446C35.9309 26.9015 35.1865 27.6695 34.0581 28.1411C31.7855 29.0899 29.5141 28.1838 29.5253 28.085C29.5354 27.9828 32.0101 28.7586 34.1569 27.4809C34.9137 27.0306 35.4335 26.4412 35.785 25.937Z" fill="#B6534D"/>
<path d="M22.7885 21.3762L22.7874 21.3683C22.6212 20.1961 22.4674 19.0385 22.3248 17.8955C22.6571 17.0612 23.5048 15.2771 25.4125 13.9095C26.487 13.1392 27.5357 12.7597 28.2757 12.5621C28.0062 12.8889 27.7356 13.2145 27.4661 13.5412C26.9653 13.7265 26.3927 13.9937 25.8055 14.3867C24.0685 15.5488 23.2253 17.1219 22.8581 17.9516C22.8345 19.0935 22.8109 20.2343 22.7885 21.3762Z" fill="#C96451"/>
<path d="M31.0826 15.4814C31.3476 15.0851 31.6283 14.5888 31.8686 13.9937C31.9977 13.6737 32.0965 13.3717 32.1729 13.091V13.0899C32.7691 12.5273 33.2059 11.9963 33.4978 11.6078C33.1789 12.2949 32.7747 13.0562 32.2616 13.8534C31.8675 14.4653 31.4666 15.0065 31.0826 15.4814Z" fill="#C96451"/>
<path d="M41.0195 21.484C40.9903 20.3264 40.9634 19.1665 40.9353 18.0078C40.4256 16.7996 39.588 15.2524 38.1946 13.7635C37.7758 13.3178 37.3558 12.9282 36.9505 12.5879C37.1627 12.3477 37.3323 12.1276 37.4648 11.9446C38.0239 12.4375 38.6302 13.0483 39.2231 13.7972C40.457 15.3568 41.152 16.904 41.5529 18.0639C41.3755 19.2036 41.1969 20.3443 41.0195 21.484Z" fill="#C96451"/>
</svg>
