<svg width="64" height="65" viewBox="0 0 64 65" fill="none" xmlns="http://www.w3.org/2000/svg">
<path d="M64 32.7068C64 50.3809 49.6731 64.7068 32 64.7068C14.3269 64.7068 0 50.3809 0 32.7068C0 15.0343 14.3269 0.707378 32 0.707378C49.6731 0.707378 64 15.0343 64 32.7068Z" fill="#F4BF96"/>
<path d="M21.809 47.8961C21.0446 47.9253 15.5426 48.1566 12.9413 49.1121C12.2909 49.3513 11.8579 49.6219 11.5035 49.9599C11.1035 50.3416 10.7452 50.8637 10.1993 52.6568C9.96965 53.4114 9.69299 54.4354 9.46057 55.6806C11.1801 57.3367 19.4643 64.9617 32.3658 64.9999C44.1957 65.0347 52.0746 58.6672 54.0667 56.9538C53.8556 55.9265 53.5816 54.6184 53.25 53.0981C52.8691 51.3521 52.7257 50.839 52.2957 50.2911C51.5445 49.3356 50.3766 49.1032 49.2607 48.9055C47.3742 48.5709 44.7951 48.1813 41.6069 47.8961C35.0075 47.8961 28.4082 47.8961 21.809 47.8961Z" fill="#EF5E36"/>
<path d="M15.9524 60.6782C15.7008 59.1646 15.2937 57.4029 14.6255 55.493C14.1263 54.0671 13.5681 52.8039 13.0162 51.7137C13.5794 52.5681 14.1612 53.5854 14.6858 54.7677C15.7248 57.1099 16.1706 59.2668 16.3657 60.9162C16.2278 60.8365 16.0902 60.7568 15.9524 60.6782Z" fill="#C54021"/>
<path d="M47.274 61.6393C47.4084 59.3892 47.8585 57.5568 48.2816 56.242C49.1067 53.6775 50.2709 51.7092 50.275 51.7114L50.2746 51.7137C49.5847 53.335 49.133 55.0473 48.5487 56.7102C48.1833 57.7499 47.8022 59.2915 47.8044 61.4069C47.6276 61.4843 47.4508 61.5618 47.274 61.6393Z" fill="#C54021"/>
<path d="M23.4395 47.5964L21.809 47.8962C24.2233 49.0448 30.0286 51.3679 36.8009 49.7297C38.6806 49.275 40.2862 48.599 41.6069 47.8962C41.0341 47.7962 40.4614 47.6963 39.8886 47.5964C38.8646 47.9478 37.7405 48.2599 36.5202 48.4946C31.1439 49.5287 26.4783 48.5676 23.4395 47.5964Z" fill="#9B2A1F"/>
<path d="M27.9869 44.2279C27.4758 43.6609 27.0249 43.5127 26.7143 43.479C25.9233 43.3937 25.5453 43.9921 24.419 44.2279C23.8416 44.3481 23.4128 44.3009 22.7471 44.2279C21.2984 44.0685 20.8712 43.6171 19.567 43.397C19.0669 43.3128 18.3159 43.2421 17.3577 43.3667C17.7549 42.2495 17.631 41.5354 17.4283 41.0818C17.1893 40.5462 16.7839 40.2464 16.7588 39.5874C16.7423 39.1517 16.9015 38.8182 17.0208 38.5768C17.5218 37.5596 18.2128 37.6213 18.705 36.7803C19.2081 35.9203 19.0207 34.9412 18.9857 34.7593C18.8247 33.9194 18.4274 33.8745 18.0512 32.7427C17.8853 32.2431 17.6987 31.6817 17.7693 30.9788C17.8007 30.6678 17.8834 30.3163 18.705 28.7702C19.0215 28.1751 19.2961 27.6878 19.4909 27.3488C18.9606 26.8031 17.6721 25.3288 17.4325 23.1191C17.1615 20.6198 18.3945 18.7379 18.972 17.9026C20.6329 15.502 21.8791 16.0114 24.9733 13.223C27.6947 10.7706 27.6178 9.57695 29.7645 8.70521C30.4923 8.40957 32.8526 7.43195 34.6954 8.69915C36.1469 9.6971 36.8003 11.7577 36.3518 13.9121C36.6711 13.4372 37.5339 12.2972 38.8219 12.1718C40.9496 11.9647 42.5558 14.6898 42.8085 15.1355C44.7799 18.6144 42.3334 20.9869 44.3798 23.456C45.2337 24.4856 46.6107 25.221 46.9032 27.0119C46.9204 27.1163 46.9911 27.5767 46.9249 28.1718C46.6422 30.7082 44.3798 31.1102 44.2554 32.8292C44.1117 34.8154 47.0325 35.6598 46.7751 38.0154C46.7225 38.4971 46.546 38.9575 46.588 39.849C46.6312 40.7618 46.874 41.4995 47.0746 41.9823C46.1122 41.815 45.2967 41.7476 44.6792 41.7207C44.1223 41.6949 43.8394 41.6848 43.6314 41.7577C42.7032 42.0845 42.6998 43.0737 41.7012 43.6306C41.2429 43.8866 40.8164 43.9169 40.4982 43.9394C39.738 43.9933 39.1809 43.7754 38.6718 43.5587C38.0931 43.3128 37.5765 43.0658 36.8945 43.2174C36.6389 43.2747 36.3128 43.397 35.9588 43.6777C33.3015 43.8619 30.6442 44.0449 27.9869 44.2279Z" fill="#33191A"/>
<path d="M22.7518 25.2671C23.1005 26.0474 23.3131 26.7189 23.4395 27.1714C23.4973 27.0085 23.555 26.8457 23.6128 26.6829C23.466 26.2147 23.2176 25.5467 22.7939 24.8034C22.3528 24.0298 21.8518 23.4021 21.8114 23.4279C21.7693 23.4549 22.2612 24.169 22.7518 25.2671Z" fill="#161311"/>
<path d="M40.2172 25.1907C40.3895 24.2745 40.7419 23.7075 41.0115 23.3718C41.2214 23.1102 41.5249 22.8115 41.5589 22.8385C41.5942 22.8665 41.3192 23.237 41.1097 23.5829C40.84 24.0275 40.5252 24.6855 40.3378 25.614C40.2976 25.4725 40.2574 25.3322 40.2172 25.1907Z" fill="#161311"/>
<path d="M42.4398 42.9693C42.4859 40.2925 41.8664 38.5162 41.2548 37.3597C40.9792 36.8399 40.7824 36.5906 40.5997 36.0124C39.7987 33.4771 41.3056 31.0496 41.3483 31.063C41.3871 31.0754 40.1741 33.0942 40.8056 35.47C40.9951 36.183 41.2384 36.5053 41.5676 37.1655C42.1171 38.2681 42.7249 39.9512 42.8481 42.3854C42.7121 42.5797 42.5759 42.7739 42.4398 42.9693Z" fill="#161311"/>
<path d="M38.9615 43.6778C39.168 43.1231 39.402 42.3057 39.4225 41.3075C39.4502 39.9444 39.0664 38.917 39.099 38.9092C39.1311 38.9013 39.5396 39.8894 39.6079 41.1683C39.6664 42.263 39.4546 43.1714 39.257 43.7833C39.1585 43.7485 39.06 43.7137 38.9615 43.6778Z" fill="#161311"/>
<path d="M21.5322 43.9798C21.4757 41.2862 22.1049 39.6851 22.7195 38.7071C22.9183 38.3916 23.2025 38.002 23.3744 37.3597C23.8769 35.4857 22.8068 33.7544 22.7658 33.7667C22.7297 33.7791 23.525 35.1354 23.1686 36.8174C22.9928 37.6472 22.6165 38.1794 22.4066 38.5128C21.7824 39.5065 21.1358 41.1267 21.1293 43.8451C21.2636 43.89 21.3979 43.9349 21.5322 43.9798Z" fill="#161311"/>
<path d="M24.8992 44.0876C24.3717 43.0018 24.4085 42.2507 24.5518 41.7566C24.6843 41.2996 24.8732 41.1806 25.0536 40.5653C25.3519 39.5458 25.1821 38.6846 25.1518 38.6846C25.1231 38.6835 25.222 39.4571 24.8851 40.4385C24.7078 40.9549 24.5504 41.1189 24.4151 41.4366C24.1908 41.9643 24.0717 42.8121 24.6302 44.1774C24.7198 44.1471 24.8095 44.1179 24.8992 44.0876Z" fill="#161311"/>
<path d="M28.1132 38.2883C28.1724 39.0159 28.232 40.0556 28.2159 41.3098C28.1964 42.8379 28.1866 43.6025 27.9869 44.2279C27.3351 46.2681 24.7672 47.2168 23.4395 47.5964C25.8812 48.4699 30.0451 49.5534 35.0606 48.8314C36.9192 48.5642 38.539 48.0994 39.8886 47.5964C39.2636 47.5346 37.6181 47.2865 36.5202 45.9683C35.8538 45.1688 35.6849 44.3301 35.4535 43.1051C35.2499 42.0272 35.0609 40.3688 35.3225 38.2883C32.9195 38.2883 30.5163 38.2883 28.1132 38.2883Z" fill="#AD434B"/>
<path d="M28.1132 38.2882C28.4959 39.0214 29.284 40.2891 30.7378 41.3647C32.649 42.7784 34.6055 43.0422 35.4536 43.1051C35.4099 41.4995 35.3662 39.8939 35.3225 38.2882H28.1132Z" fill="#702D31"/>
<path d="M40.3378 25.614C40.2973 25.7578 40.2569 25.9015 40.2176 26.0452C39.5776 28.375 39.2485 30.295 39.0656 31.6525C38.7591 33.9138 38.8018 35.0254 37.8766 36.2796C37.0781 37.3631 36.0183 37.929 34.8731 38.5387C33.7727 39.1259 32.8273 39.6154 31.5799 39.5492C31.3721 39.5391 30.8063 39.4942 29.3343 38.8384C27.2223 37.8987 26.1668 37.4282 25.4415 36.4806C24.7038 35.5149 24.8374 34.8042 24.4231 32.0455C24.2558 30.9283 23.9897 29.4159 23.5507 27.6194C23.5147 27.4723 23.4777 27.323 23.4395 27.1714C23.7056 26.3281 24.1705 25.3625 25.0305 24.5788C26.0422 23.657 26.6687 23.8378 27.5108 22.9002C28.6067 21.6809 28.1968 20.6524 29.0726 20.2369C29.5286 20.0202 29.8744 20.1886 30.3934 20.3571C30.7791 20.4817 31.2604 20.6063 31.9538 20.5738C32.4949 20.5491 33.6526 20.4941 34.4621 19.6385C35.2166 18.8413 35.2481 17.7926 35.2425 17.449C36.1171 18.2136 37.2265 19.3454 38.2415 20.9106C39.4081 22.7093 40.011 24.4059 40.3378 25.614Z" fill="#AD434B"/>
<path d="M23.5507 27.6194C23.5147 27.4723 23.4777 27.3229 23.4395 27.1714C23.7056 26.3281 24.1705 25.3625 25.0305 24.5788C26.0422 23.657 26.6687 23.8377 27.5108 22.9002C28.6067 21.6808 28.1968 20.6523 29.0726 20.2369C29.227 20.1639 29.3689 20.1347 29.5091 20.1347C29.7828 20.1347 30.0503 20.2459 30.3934 20.3571C30.7364 20.4682 31.1553 20.5794 31.7318 20.5794C31.8033 20.5794 31.8772 20.5771 31.9538 20.5738C32.4949 20.549 33.6526 20.494 34.4621 19.6385C35.1783 18.8817 35.243 17.8981 35.2429 17.5063C35.2429 17.486 35.2427 17.467 35.2425 17.449C36.1171 18.2136 37.2265 19.3454 38.2415 20.9106C39.4081 22.7093 40.011 24.4059 40.3378 25.614C40.2973 25.7577 40.2569 25.9015 40.2176 26.0452C39.3474 24.325 38.74 23.0698 38.2976 22.1322C38.0674 21.6449 37.7733 21.0105 37.1939 20.2841C36.6571 19.6115 36.1059 19.1467 35.7107 18.8525C35.4423 19.3375 34.845 20.2358 33.7413 20.7613C33.5739 20.841 32.7644 21.2115 31.7298 21.2115C31.4245 21.2115 31.0996 21.1801 30.7658 21.0981C30.1483 20.9476 29.8006 20.7006 29.466 20.7006C29.376 20.7006 29.287 20.7186 29.1939 20.7613C28.7302 20.9723 28.7257 21.536 28.4641 22.1928C27.9364 23.5144 26.9831 23.6592 25.5178 25.0841C24.9901 25.5972 24.2569 26.4112 23.5507 27.6194Z" fill="#8D3038"/>
<path d="M33.2018 24.2364C32.9807 24.3823 32.9544 24.6776 33.0957 24.8314C33.2188 24.9662 33.4636 24.9853 33.6383 24.8404C34.3869 24.1937 35.5252 23.4358 36.8197 23.5683C38.1916 23.7086 39.1231 24.7877 39.2009 24.6911C39.2801 24.5934 38.432 23.3302 37.0816 22.9698C35.2164 22.4702 33.4833 23.9837 33.2018 24.2364Z" fill="#271616"/>
<path d="M30.1797 24.2364C30.4009 24.3823 30.4271 24.6776 30.2858 24.8314C30.1627 24.9662 29.9179 24.9853 29.7432 24.8404C28.9946 24.1937 27.8563 23.4358 26.5619 23.5683C25.1899 23.7086 24.2584 24.7877 24.1806 24.6911C24.1014 24.5934 24.9495 23.3302 26.2999 22.9698C28.1651 22.4702 29.8982 23.9837 30.1797 24.2364Z" fill="#271616"/>
<path d="M25.5448 27.7507C25.6213 26.592 26.5484 25.6792 27.6501 25.6174C28.8397 25.5512 29.9212 26.4954 30.008 27.7507C29.7105 26.7739 28.8077 26.1002 27.7904 26.0946C26.763 26.089 25.8453 26.7649 25.5448 27.7507Z" fill="#271616"/>
<path d="M25.732 26.9805C24.8673 26.6178 24.4638 26.4674 24.45 26.4966C24.4361 26.5269 24.8148 26.7402 25.6591 27.1714L25.732 26.9805Z" fill="#271616"/>
<path d="M33.4788 27.7507C33.5552 26.592 34.4822 25.6792 35.584 25.6174C36.7736 25.5512 37.8551 26.4954 37.9419 27.7507C37.6445 26.7739 36.7416 26.1002 35.7244 26.0946C34.6969 26.089 33.7792 26.7649 33.4788 27.7507Z" fill="#271616"/>
<path d="M37.6726 26.9805C38.5374 26.6178 38.9408 26.4674 38.9546 26.4966C38.9685 26.5269 38.5898 26.7402 37.7457 27.1714L37.6726 26.9805Z" fill="#271616"/>
<path d="M28.829 28.2044C28.829 28.7759 28.5085 29.2385 28.1132 29.2385C27.7178 29.2385 27.3974 28.7759 27.3974 28.2044C27.3974 27.634 27.7178 27.1714 28.1132 27.1714C28.5085 27.1714 28.829 27.634 28.829 28.2044Z" fill="#271616"/>
<path d="M28.4921 27.7698C28.4921 27.8518 28.4251 27.9192 28.3425 27.9192C28.2597 27.9192 28.1927 27.8518 28.1927 27.7698C28.1927 27.6867 28.2597 27.6193 28.3425 27.6193C28.4251 27.6193 28.4921 27.6867 28.4921 27.7698Z" fill="white"/>
<path d="M35.9588 28.2044C35.9588 28.7759 35.6384 29.2385 35.243 29.2385C34.8477 29.2385 34.5272 28.7759 34.5272 28.2044C34.5272 27.634 34.8477 27.1714 35.243 27.1714C35.6384 27.1714 35.9588 27.634 35.9588 28.2044Z" fill="#271616"/>
<path d="M35.622 27.7698C35.622 27.8518 35.555 27.9192 35.4723 27.9192C35.3896 27.9192 35.3225 27.8518 35.3225 27.7698C35.3225 27.6867 35.3896 27.6193 35.4723 27.6193C35.555 27.6193 35.622 27.6867 35.622 27.7698Z" fill="white"/>
<path d="M31.5311 29.7684C31.0521 30.6801 30.5731 31.5918 30.0941 32.5036C30.0584 32.5721 30.0791 32.6563 30.1436 32.6989C30.417 32.8775 31.0049 33.1919 31.7903 33.1548C32.4373 33.1256 32.918 32.8719 33.1731 32.7057C33.2379 32.663 33.2595 32.5788 33.2238 32.5103C32.7483 31.5963 32.2729 30.6824 31.7975 29.7684C31.7414 29.6606 31.5874 29.6606 31.5311 29.7684Z" fill="#78252C"/>
<path d="M33.7132 33.7297C34.1905 33.4231 34.4808 33.029 34.6395 32.7753C34.7447 32.6405 34.9333 32.6405 35.0184 32.7337C35.0986 32.8202 35.0914 32.9931 34.967 33.093C34.7564 33.3939 34.3697 33.8577 33.7506 34.1788C31.8292 35.1747 29.5384 33.8195 29.5588 33.7443C29.5795 33.6668 31.9909 34.8345 33.7132 33.7297Z" fill="#78252C"/>
</svg>
