<svg width="64" height="65" viewBox="0 0 64 65" fill="none" xmlns="http://www.w3.org/2000/svg">
<path d="M64 32.5201C64 50.193 49.6731 64.5199 32 64.5199C14.3269 64.5199 0 50.193 0 32.5201C0 14.8471 14.3269 0.52005 32 0.52005C49.6731 0.52005 64 14.8471 64 32.5201Z" fill="#B2D97E"/>
<path d="M22.86 43.061C21.6827 43.1586 17.2258 43.6695 13.5775 47.4021C10.4555 50.5962 9.75696 54.2759 9.57281 55.5612C11.0257 56.9998 19.8774 65.4775 33.4886 64.8805C45.3504 64.3603 52.8501 57.2982 54.5974 55.5612C54.3675 54.1709 53.6108 50.7727 50.7609 47.7351C46.9807 43.7055 42.1927 43.162 40.9765 43.061C34.9377 43.061 28.8989 43.061 22.86 43.061Z" fill="#F5F6E8"/>
<path d="M15.744 60.284C15.6523 59.751 15.518 59.0124 15.3354 58.1369C14.5121 54.1869 13.5609 51.544 13.6337 51.519C13.6797 51.5032 14.1063 52.5471 15.6921 56.9366C15.8014 53.6404 15.8622 52.9033 15.8979 52.9038C15.9605 52.9048 15.8964 55.1501 16.1974 58.312C16.2927 59.3131 16.3993 60.1408 16.4791 60.7111C16.2341 60.5689 15.9891 60.4264 15.744 60.284Z" fill="#CDCFB8"/>
<path d="M48.5582 60.284C48.65 59.751 48.7842 59.0124 48.9668 58.1369C49.7902 54.1869 50.7413 51.544 50.6685 51.519C50.6225 51.5032 50.1959 52.5471 48.6101 56.9366C48.5008 53.6404 48.4401 52.9033 48.4043 52.9038C48.3417 52.9048 48.4057 55.15 48.1048 58.312C48.0095 59.3131 47.903 60.1408 47.8231 60.7111C48.0681 60.5687 48.3132 60.4264 48.5582 60.284Z" fill="#CDCFB8"/>
<path d="M25.1237 42.0875L22.86 43.0609C25.2227 46.9043 29.5066 48.9716 33.6383 48.3003C38.3128 47.5408 40.653 43.6235 40.9765 43.0609C40.2677 42.7926 39.5588 42.5242 38.85 42.2559L25.1237 42.0875Z" fill="#C4C4AD"/>
<path d="M37.238 41.489C37.7753 41.7439 38.3127 41.9999 38.8501 42.2559C38.3607 42.7892 37.7398 43.3855 36.9694 43.9682C35.8964 44.78 34.8632 45.3201 34.0256 45.6805C33.3601 45.0966 32.6945 44.5139 32.0289 43.93C31.3815 44.5139 30.7342 45.0966 30.0868 45.6805C29.4481 45.4402 28.6945 45.0933 27.9027 44.5857C26.6089 43.756 25.7083 42.8128 25.1237 42.0875C25.6914 41.8876 26.259 41.6878 26.8266 41.489H37.238Z" fill="#F5E9DB"/>
<path d="M30.0867 45.6805L32.0289 43.93L34.0256 45.6805C33.7207 45.8051 33.3543 45.9207 32.9325 45.9915C31.6891 46.2003 30.6536 45.8994 30.0867 45.6805Z" fill="#E74E21"/>
<path d="M23.0598 25.5676C22.5791 24.8232 21.9241 23.7419 21.25 22.3822C20.6056 21.082 20.0725 20.0041 19.9026 19.2384C19.1215 15.7139 24.3359 11.0991 28.8851 8.96468C31.0681 7.94068 34.6061 6.28004 37.4184 7.95415C38.6864 8.70868 39.377 9.88538 39.749 10.7241C40.0861 10.5063 40.3245 10.513 40.45 10.5366C41.0748 10.6511 41.584 11.6504 41.54 13.0438C41.8402 12.6059 42.2457 12.3971 42.5272 12.5015C42.7936 12.6003 42.8795 12.9529 42.9202 13.1191C43.139 14.0173 42.5212 14.8684 42.3065 15.1401C43.1854 15.7262 43.4518 16.5504 43.1986 16.9344C42.9901 17.2499 42.4454 17.242 42.3065 17.2364C42.6784 17.6844 43.3436 18.6242 43.4254 19.912C43.4859 20.8642 43.1997 21.5738 42.7359 22.7236C42.4479 23.4388 41.9749 24.4459 41.2016 25.5676C35.1544 25.5676 29.1072 25.5676 23.0598 25.5676Z" fill="#64312B"/>
<path d="M32.0851 16.8243C32.7246 16.575 33.5796 16.1596 34.4571 15.4623C35.0967 14.9548 35.5784 14.4316 35.9298 13.9892C35.6532 14.4956 35.1223 15.3063 34.1904 16.0103C33.555 16.4897 32.9383 16.7659 32.4804 16.9265C32.3486 16.8928 32.2168 16.858 32.0851 16.8243Z" fill="#211514"/>
<path d="M37.238 35.9559V41.489C36.7994 41.8079 36.1645 42.2402 35.3599 42.6859C33.9478 43.4685 33.2418 43.8593 32.3658 43.921C31.1227 44.0086 30.127 43.4809 28.8012 42.7791C27.9332 42.3199 27.2697 41.8405 26.8265 41.489C26.8265 39.6443 26.8265 37.7995 26.8265 35.9559H37.238Z" fill="#F4AB86"/>
<path d="M37.238 41.489C36.0747 41.4632 34.149 41.2701 32.029 40.291C29.3706 39.0637 27.7663 37.2291 26.9805 36.168C28.095 37.2661 29.8638 38.5562 32.0679 38.5562C32.1479 38.5562 32.2285 38.554 32.3097 38.5506C34.584 38.4541 36.2548 37.0113 37.238 35.9558V41.489Z" fill="#D17859"/>
<path d="M41.7974 21.1471C41.7121 22.1217 41.5695 23.3939 41.3202 24.885C41.2046 25.5777 41.0665 26.3177 40.8992 27.098C40.0313 31.1424 39.5563 33.2342 37.8676 35.2384C37.0884 36.1636 35.1796 38.4283 32.3097 38.5506C28.6875 38.7056 26.187 35.3338 25.7413 34.7331C24.367 32.8805 23.9459 30.5978 23.1027 26.0313C23.0387 25.6833 22.9792 25.3476 22.9241 25.0231C22.9118 24.9512 22.9006 24.8805 22.8882 24.8109C22.8568 24.62 22.8265 24.4336 22.7984 24.2528C22.6434 23.2636 22.5334 22.4182 22.4559 21.7636C22.4324 21.1404 22.4469 19.2698 23.7764 17.8349C24.0885 17.498 24.4197 17.2431 24.7307 17.0489C25.6627 17.3644 27.2593 17.7641 29.222 17.5542C30.4032 17.4284 31.3744 17.1174 32.0851 16.8243C32.486 16.9445 34.4632 17.4913 36.2395 16.3752C36.8515 15.9901 37.2647 15.5185 37.5308 15.1401C38.1214 15.587 38.7883 16.1753 39.4395 16.9366C40.7633 18.4827 41.4404 20.0603 41.7974 21.1471Z" fill="#F4AB86"/>
<path d="M41.2016 25.5676C41.4516 25.4261 42.1361 25.0803 42.8079 25.3206C43.8371 25.6877 44.095 27.162 44.0429 27.9401C43.9322 29.594 42.2177 31.1154 39.749 31.761C40.2333 29.6961 40.7174 27.6324 41.2016 25.5676Z" fill="#F4AB86"/>
<path d="M41.0281 30.0892C41.1043 29.6243 41.5829 26.8072 42.4415 26.7701C42.4474 26.7701 42.4532 26.769 42.4591 26.769C42.5689 26.769 42.7005 26.815 42.8533 26.9554C42.931 27.0677 43.0369 27.2541 43.08 27.5C43.1523 27.9154 43.0024 28.2455 42.914 28.4409C42.4824 29.3919 41.2092 30.0038 41.0281 30.0892Z" fill="#D88563"/>
<path d="M42.3793 26.6287C41.8094 26.5984 41.3336 27.8862 41.2563 28.104C40.8904 29.1337 40.9668 30.0824 41.0281 30.0892C41.0834 30.0948 41.1352 29.3369 41.5583 28.204C41.9562 27.1373 42.2545 26.8847 42.4974 26.8746C42.6735 26.8667 42.8363 26.9857 42.8533 26.9554C42.8754 26.915 42.633 26.6421 42.3793 26.6287Z" fill="#C1634A"/>
<path d="M42.2184 28.232C42.4689 28.7575 42.1106 29.3897 42.0643 29.3795C42.0182 29.3694 42.303 28.7553 41.9989 28.3365C41.8269 28.0995 41.5097 27.9862 41.5424 27.8076C41.5438 27.7998 41.5566 27.7346 41.6065 27.7111C41.7445 27.6437 42.0749 27.9323 42.2184 28.232Z" fill="#C1634A"/>
<path d="M23.0599 25.5676C22.81 25.4261 22.1254 25.0803 21.4536 25.3206C20.4243 25.6877 20.1665 27.162 20.2185 27.9401C20.3293 29.594 22.0438 31.1154 24.5125 31.761C24.0283 29.6961 23.5442 27.6324 23.0599 25.5676Z" fill="#F4AB86"/>
<path d="M23.372 30.0892C23.1908 30.0038 21.9178 29.3919 21.4861 28.4409C21.3978 28.2455 21.2479 27.9154 21.3202 27.5C21.3633 27.2541 21.4691 27.0677 21.5469 26.9554C21.6997 26.815 21.8312 26.769 21.9411 26.769C21.9469 26.769 21.9528 26.7701 21.9586 26.7701C22.8172 26.8072 23.2959 29.6243 23.372 30.0892Z" fill="#D88563"/>
<path d="M22.0208 26.6287C22.5906 26.5984 23.0665 27.8862 23.1438 28.104C23.5098 29.1337 23.4333 30.0824 23.372 30.0892C23.3168 30.0948 23.2649 29.3369 22.8418 28.204C22.4439 27.1373 22.1457 26.8847 21.9027 26.8746C21.7266 26.8667 21.5637 26.9857 21.5469 26.9554C21.5248 26.915 21.7672 26.6421 22.0208 26.6287Z" fill="#C1634A"/>
<path d="M22.1817 28.232C21.9312 28.7575 22.2895 29.3897 22.3358 29.3795C22.3819 29.3694 22.097 28.7553 22.4011 28.3365C22.5731 28.0995 22.8903 27.9862 22.8576 27.8076C22.8563 27.7998 22.8435 27.7346 22.7936 27.7111C22.6556 27.6437 22.3252 27.9323 22.1817 28.232Z" fill="#C1634A"/>
<path d="M31.767 26.8544L30.8315 30.1195C30.7916 30.2587 30.8224 30.4091 30.9124 30.5225C31.2033 30.8886 31.6519 31.1019 32.1225 31.0839C32.6672 31.0637 33.028 30.7415 33.2125 30.5203C33.3078 30.4069 33.3386 30.2519 33.2961 30.1105C32.9735 29.0247 32.651 27.9401 32.3284 26.8544C32.3207 26.7118 32.2227 26.5961 32.1038 26.5737C31.9538 26.5456 31.7846 26.6669 31.767 26.8544Z" fill="#C96C4F"/>
<path d="M33.4044 32.291C34.2378 32.0518 34.8848 31.6622 35.3412 31.3276C35.4909 31.2142 35.6834 31.2165 35.7903 31.3085C35.9274 31.4276 35.9342 31.7049 35.7342 31.8699C35.2527 32.2551 34.5121 32.7311 33.5264 32.9501C31.2725 33.452 29.2829 32.2697 29.3155 32.1506C29.3464 32.0372 31.2045 32.922 33.4044 32.291Z" fill="#C96C4F"/>
<path d="M25.7693 22.0734C25.6006 22.197 25.3657 22.1689 25.236 22.0173C25.1157 21.877 25.1135 21.6614 25.236 21.5121C25.3904 21.3189 26.2187 20.323 27.6781 20.1647C28.9982 20.0221 29.9475 20.661 30.1763 20.8238C30.365 20.9327 30.4283 21.1707 30.3307 21.3436C30.2449 21.4963 30.051 21.5704 29.8715 21.5098C29.6377 21.3695 28.8324 20.9237 27.7483 21.0629C26.63 21.2067 25.9526 21.8792 25.7693 22.0734Z" fill="#5C2923"/>
<path d="M38.4748 22.0734C38.6436 22.197 38.8783 22.1689 39.0081 22.0173C39.1284 21.877 39.1306 21.6614 39.0081 21.5121C38.8537 21.3189 38.0253 20.323 36.566 20.1647C35.2458 20.0221 34.2965 20.661 34.0678 20.8238C33.8792 20.9327 33.8158 21.1707 33.9134 21.3436C33.9991 21.4963 34.193 21.5704 34.3726 21.5098C34.6064 21.3695 35.4116 20.9237 36.4959 21.0629C37.6142 21.2067 38.2916 21.8792 38.4748 22.0734Z" fill="#5C2923"/>
<path d="M28.2114 23.084C29.3096 23.0626 30.1521 24.1035 30.0828 24.2158C30.0246 24.3101 29.3571 23.7026 28.3237 23.7105C27.1209 23.7206 26.3579 24.5571 26.2839 24.4594C26.2007 24.3494 27.0279 23.1064 28.2114 23.084Z" fill="#391D1D"/>
<path d="M35.9008 23.084C34.8027 23.0626 33.9603 24.1035 34.0294 24.2158C34.0875 24.3101 34.7551 23.7026 35.7885 23.7105C36.9913 23.7206 37.7544 24.5571 37.8284 24.4594C37.9116 24.3494 37.0844 23.1064 35.9008 23.084Z" fill="#391D1D"/>
<path d="M29.3716 25.8349C29.3716 26.3985 28.957 26.8544 28.4453 26.8544C27.9337 26.8544 27.519 26.3985 27.519 25.8349C27.519 25.2712 27.9337 24.8153 28.4453 24.8153C28.957 24.8153 29.3716 25.2712 29.3716 25.8349Z" fill="#271616"/>
<path d="M28.8243 25.379C28.8243 25.4834 28.7395 25.5676 28.6348 25.5676C28.5302 25.5676 28.4453 25.4834 28.4453 25.379C28.4453 25.2746 28.5302 25.1893 28.6348 25.1893C28.7395 25.1893 28.8243 25.2746 28.8243 25.379Z" fill="white"/>
<path d="M36.5764 25.8349C36.5764 26.3985 36.1616 26.8544 35.65 26.8544C35.1385 26.8544 34.7237 26.3985 34.7237 25.8349C34.7237 25.2712 35.1385 24.8153 35.65 24.8153C36.1616 24.8153 36.5764 25.2712 36.5764 25.8349Z" fill="#271616"/>
<path d="M35.65 25.379C35.65 25.4834 35.5652 25.5676 35.4606 25.5676C35.3558 25.5676 35.2711 25.4834 35.2711 25.379C35.2711 25.2746 35.3558 25.1893 35.4606 25.1893C35.5652 25.1893 35.65 25.2746 35.65 25.379Z" fill="white"/>
<path d="M28.0149 22.4945C26.3898 22.4945 25.0675 23.8172 25.0675 25.4419C25.0675 27.0666 26.3898 28.3892 28.0149 28.3892C29.6401 28.3892 30.9623 27.0666 30.9623 25.4419C30.9623 23.8172 29.6401 22.4945 28.0149 22.4945ZM28.0149 28.8383C26.1421 28.8383 24.6184 27.3147 24.6184 25.4419C24.6184 23.569 26.1421 22.0454 28.0149 22.0454C29.8877 22.0454 31.4114 23.569 31.4114 25.4419C31.4114 27.3147 29.8877 28.8383 28.0149 28.8383Z" fill="#2C1617"/>
<path d="M36.1759 22.4945C34.5508 22.4945 33.2285 23.8172 33.2285 25.4419C33.2285 27.0666 34.5508 28.3892 36.1759 28.3892C37.801 28.3892 39.1233 27.0666 39.1233 25.4419C39.1233 23.8172 37.801 22.4945 36.1759 22.4945ZM36.1759 28.8383C34.3031 28.8383 32.7794 27.3147 32.7794 25.4419C32.7794 23.569 34.3031 22.0454 36.1759 22.0454C38.0487 22.0454 39.5724 23.569 39.5724 25.4419C39.5724 27.3147 38.0487 28.8383 36.1759 28.8383Z" fill="#2C1617"/>
<path d="M33.004 25.6664H31.1868V25.2173H33.004V25.6664Z" fill="#2C1617"/>
<path d="M24.678 25.8843C24.1235 25.7709 23.5688 25.6563 23.0143 25.5429C22.9876 25.3745 22.9609 25.2072 22.9342 25.0399C23.5505 25.1757 24.1669 25.3116 24.7832 25.4486L24.678 25.8843Z" fill="#2C1617"/>
<path d="M39.3553 26.0033C39.4102 25.818 39.465 25.6327 39.5199 25.4486C40.12 25.3217 40.7201 25.1948 41.3202 25.068C41.2951 25.2263 41.27 25.3857 41.245 25.544C40.6151 25.6967 39.9852 25.8506 39.3553 26.0033Z" fill="#2C1617"/>
<path d="M41.3202 24.8849V21.1471C40.7532 20.1332 40.0492 19.0216 39.1779 17.8719C38.5974 17.1072 38.0169 16.4223 37.4555 15.8138C37.2657 16.0889 36.3416 17.3655 34.6114 17.6855C34.3398 17.736 34.0804 17.7562 33.8371 17.7562C33.007 17.7562 32.3644 17.516 32.0649 17.3857C31.2706 17.7618 29.8242 18.3233 28.0156 18.3233C27.646 18.3233 27.2614 18.2997 26.864 18.2469C26.0792 18.1414 25.401 17.9404 24.843 17.7225C24.5174 18.0268 24.1962 18.385 23.9077 18.8083C22.5895 20.7328 22.6243 22.9391 22.7983 24.2528C22.6434 23.2636 22.5334 22.4181 22.4559 21.7635C22.4533 21.6951 22.4512 21.612 22.4512 21.5165C22.4513 20.7362 22.5923 19.1126 23.7763 17.8348C24.0884 17.498 24.4197 17.2431 24.7307 17.0489C25.4822 17.3037 26.6662 17.6125 28.1257 17.6125C28.476 17.6125 28.8421 17.5945 29.2219 17.5541C30.4031 17.4284 31.3743 17.1174 32.0851 16.8243C32.2931 16.8872 32.9262 17.0635 33.7353 17.0635C34.4847 17.0635 35.3852 16.9119 36.2395 16.3752C36.8514 15.9901 37.2646 15.5185 37.5307 15.1401C38.1213 15.587 38.7882 16.1753 39.4395 16.9366C40.7633 18.4827 41.4403 20.0602 41.7974 21.1471C41.712 22.1217 41.5694 23.3939 41.3202 24.8849Z" fill="#D57F5F"/>
</svg>
