<svg width="64" height="65" viewBox="0 0 64 65" fill="none" xmlns="http://www.w3.org/2000/svg">
<path d="M64 32.7943C64 50.4672 49.673 64.7941 32 64.7941C14.327 64.7941 0 50.4672 0 32.7943C0 15.1213 14.327 0.79425 32 0.79425C49.673 0.79425 64 15.1213 64 32.7943Z" fill="#F4BF96"/>
<path d="M45.5568 46.9238C46.7739 47.3927 49.0251 48.4438 51.0877 50.6706C53.0773 52.8185 53.9554 55.0495 54.3439 56.2846C52.6585 57.8093 43.4616 65.8279 29.8667 64.9301C18.9934 64.212 11.8939 58.2251 9.76843 56.2846C10.0121 55.1373 10.752 52.4189 13.1369 49.9969C15.0995 48.0045 17.2407 47.1618 18.3534 46.8093C27.4212 46.8474 36.489 46.8856 45.5568 46.9238Z" fill="#EF5E36"/>
<path d="M32.0606 50.9352C30.7166 50.9352 30.4426 50.3465 28.4744 50.2118C28.2824 50.1986 28.1218 50.1931 27.9826 50.1931C27.3055 50.1931 27.1135 50.3236 26.012 50.3336C25.8829 50.3347 25.7437 50.3361 25.5955 50.3361C24.2807 50.3361 22.2248 50.237 20.2857 49.0985C19.676 48.7412 18.7666 48.0983 17.8919 46.9651L18.5218 46.964C19.6581 47.9653 21.2839 48.8231 22.6807 49.2669C23.7855 49.6181 24.8387 49.7387 25.7684 49.7387C26.908 49.7387 27.8647 49.5579 28.5137 49.3979C29.2379 49.6976 30.4999 50.1152 32.1089 50.1152C32.2212 50.1152 32.3335 50.1132 32.4491 50.109C33.8638 50.0574 34.9866 49.6934 35.6985 49.3979C36.142 49.4447 36.672 49.4814 37.2704 49.4814C38.5572 49.4814 40.1583 49.3115 41.8807 48.7055C42.313 48.5532 44.1892 47.8931 45.5568 46.9236C45.8543 47.0493 46.1518 47.1762 46.4494 47.3017C42.7026 49.4428 40.3009 49.9676 38.7357 49.9676C38.6189 49.9676 38.5078 49.9646 38.4 49.9594C38.1597 49.9473 37.7881 49.9153 37.303 49.9153C36.8606 49.9153 36.3228 49.942 35.7052 50.0343C33.7459 50.3266 33.6123 50.8858 32.2245 50.9324C32.1684 50.9343 32.1134 50.9352 32.0606 50.9352Z" fill="#D34925"/>
<path d="M26.4421 49.6056C26.249 53.4038 26.0559 57.202 25.8616 61.0003C26.0862 61.0377 26.3108 61.0752 26.5353 61.1125C26.724 57.2568 26.9126 53.401 27.1012 49.5453L26.4421 49.6056Z" fill="#9B2A1F"/>
<path d="M37.7868 49.381C37.9811 53.1793 38.1742 56.9775 38.3674 60.7757C38.1428 60.8131 37.9182 60.8506 37.6936 60.888C37.5049 57.0323 37.3162 53.1765 37.1287 49.3207L37.7868 49.381Z" fill="#9B2A1F"/>
<path d="M26.0693 36.3255C25.417 36.4108 23.4083 36.76 21.7072 38.4689C20.3071 39.8758 19.8568 41.4589 19.7064 42.1371C17.4787 42.9455 17.1834 43.9673 17.1228 44.2704C16.7365 46.2118 20.0982 48.4464 22.6807 49.2669C25.1396 50.048 27.3347 49.6887 28.5137 49.398C29.2884 49.7185 30.6773 50.1738 32.4491 50.109C33.8638 50.0574 34.9867 49.6934 35.6985 49.398C37.0942 49.5451 39.3577 49.5932 41.8807 48.7055C42.5914 48.4553 47.2028 46.8327 47.0456 44.7196C46.9513 43.4575 45.1986 42.5874 44.2947 42.2123C43.9691 41.3792 43.1921 39.7276 41.4877 38.3196C40.1796 37.2383 38.8637 36.7454 38.0553 36.513C34.0603 36.4501 30.0654 36.3872 26.0693 36.3255Z" fill="#EF5E36"/>
<path d="M37.7821 44.6634L40.1212 42.7984C39.2296 41.2647 38.9837 40.8897 38.9612 40.902C38.9376 40.9144 39.1656 41.3422 39.4812 42.1371C39.5811 42.3909 39.6619 42.6076 39.7192 42.7681C39.0735 43.2689 38.4278 43.7697 37.7821 44.2704V44.6634Z" fill="#AE3620"/>
<path d="M26.4422 44.8318C25.6877 44.2042 24.9331 43.5754 24.1774 42.9478C25.0701 41.4151 25.316 41.039 25.3384 41.0514C25.362 41.0648 25.1341 41.4915 24.8186 42.2864C24.7175 42.5413 24.6378 42.758 24.5805 42.9186C25.2396 43.4048 25.8988 43.8909 26.559 44.3771C26.5197 44.5287 26.4815 44.6803 26.4422 44.8318Z" fill="#AE3620"/>
<path d="M26.5589 44.3771C25.8987 43.8909 25.2396 43.4047 24.5805 42.9185L25.2149 41.3543C25.3025 41.1601 25.3496 41.0579 25.3384 41.0512C26.2658 40.6874 27.419 40.3168 28.7652 40.0608C28.7866 40.0675 28.8079 40.0732 28.8292 40.0788C29.5534 40.2562 30.4191 40.4055 31.4016 40.4527C31.6216 40.4628 31.8361 40.4684 32.0472 40.4684C33.3395 40.4684 34.45 40.282 35.3112 40.0687C35.3819 40.0507 35.4504 40.026 35.5155 39.9946C36.9291 40.2337 38.1002 40.5908 38.9614 40.9018C38.9502 40.9086 38.9974 41.0107 39.0849 41.2061C39.296 41.7271 39.5082 42.2481 39.7193 42.768L37.5018 44.3457L26.5589 44.3771Z" fill="#D54A26"/>
<path d="M39.085 41.2063C38.9976 41.0109 38.9505 40.9088 38.9617 40.902C39.0032 41.0031 39.0435 41.1041 39.085 41.2063Z" fill="#BD3C21"/>
<path d="M26.5588 44.3771L24.5805 42.9187C25.2396 43.4048 25.8986 43.891 26.5588 44.3771ZM25.2149 41.3547L25.3384 41.0516C25.3496 41.0583 25.3024 41.1605 25.2149 41.3547Z" fill="#BD3C21"/>
<path d="M19.7065 42.1369C20.1826 43.0532 20.945 44.2501 22.1565 45.3561C24.5963 47.5808 27.3213 48.0366 27.3034 48.088C27.2831 48.1426 24.1708 47.7554 21.5771 45.3C20.4375 44.2209 19.7571 43.0824 19.3585 42.2717C19.4741 42.2268 19.5909 42.1819 19.7065 42.1369Z" fill="#C54021"/>
<path d="M44.2765 42.2124C43.7993 43.1286 43.038 44.3244 41.8254 45.4303C39.3866 47.6556 36.6605 48.1114 36.6795 48.1629C36.6986 48.2175 39.8122 47.8303 42.4059 45.3742C43.5445 44.2963 44.226 43.1578 44.6235 42.346C44.5078 42.3011 44.3922 42.2573 44.2765 42.2124Z" fill="#C54021"/>
<path d="M26.9922 60.8954C26.9922 61.3129 26.6542 61.6513 26.2366 61.6513C25.8189 61.6513 25.481 61.3129 25.481 60.8954C25.481 60.4779 25.8189 60.1394 26.2366 60.1394C26.6542 60.1394 26.9922 60.4779 26.9922 60.8954Z" fill="#9B2A1F"/>
<path d="M38.7816 60.8954C38.7816 61.3129 38.4437 61.6513 38.026 61.6513C37.6084 61.6513 37.2704 61.3129 37.2704 60.8954C37.2704 60.4779 37.6084 60.1394 38.026 60.1394C38.4437 60.1394 38.7816 60.4779 38.7816 60.8954Z" fill="#9B2A1F"/>
<path d="M15.5161 60.4932C15.3409 59.2807 15.0029 57.7683 14.3349 56.1161C13.9026 55.047 13.4164 54.1296 12.9493 53.3652C13.5489 54.1085 14.2597 55.1409 14.8581 56.4716C15.6205 58.1637 15.9135 59.6995 16.0326 60.7884C15.8608 60.69 15.6879 60.5916 15.5161 60.4932Z" fill="#C54021"/>
<path d="M48.5108 60.4932C48.6859 59.2807 49.0239 57.7683 49.6918 56.1161C50.1241 55.047 50.6102 54.1296 51.0761 53.3652C50.4777 54.1085 49.7671 55.1409 49.1676 56.4716C48.4064 58.1637 48.1134 59.6995 47.9944 60.7884C48.1662 60.69 48.339 60.5916 48.5108 60.4932Z" fill="#C54021"/>
<path d="M22.9423 26.4548C22.9625 25.7553 22.8738 24.7706 22.2507 23.9509C21.4344 22.8764 20.2869 22.8539 20.0163 21.9826C19.8849 21.5604 19.9377 20.8677 20.919 19.737C20.8584 19.7033 19.7232 19.0577 19.7064 18.0527C19.6884 17.0254 20.8449 15.9037 22.4752 15.9755C21.7858 15.3512 21.3805 14.4867 21.5579 13.7299C21.8274 12.5767 23.4532 11.647 25.2632 12.2141C24.7691 11.3281 24.8533 10.312 25.3754 9.79998C26.0671 9.1218 27.6435 9.21836 28.5137 10.4737C28.4699 10.2053 28.3655 9.35647 28.8561 8.84558C29.5175 8.15729 31.1276 8.22017 32.4491 9.46313C33.3878 8.43687 34.6813 8.30326 35.3123 8.84558C35.8007 9.26552 35.7895 10.0032 35.7816 10.193C36.6058 9.33289 37.9127 9.28573 38.6807 9.96841C39.2949 10.5141 39.4947 11.4618 39.1489 12.3072C40.832 12.0097 42.313 12.8687 42.6667 14.0667C42.9732 15.1053 42.3354 16.0665 42.2175 16.2371C43.4156 16.4033 44.2611 17.2802 44.2936 18.2077C44.3217 18.997 43.7479 19.5607 43.621 19.6808C43.9556 20.2557 44.3262 21.1035 44.014 21.8142C43.6592 22.6238 42.7093 22.5968 42.0682 23.3862C41.6651 23.8824 41.3103 24.7919 41.7314 26.6053C38.1968 27.4485 34.6633 28.2918 31.1298 29.1361C28.4003 28.2424 25.6719 27.3486 22.9423 26.4548Z" fill="#33191A"/>
<path d="M27.1012 37.9356C27.1708 38.9203 27.1854 40.0936 27.0597 41.4073C26.9339 42.7244 26.6981 43.8764 26.4421 44.8319C28.3442 45.8985 30.2473 46.9652 32.1494 48.0319L37.7825 44.6634C37.5995 43.5114 37.458 42.2123 37.4097 40.7853C37.3693 39.6243 37.3963 38.5453 37.4614 37.5639C34.0087 37.6886 30.555 37.8121 27.1012 37.9356Z" fill="#AD434B"/>
<path d="M27.1012 37.9357C27.4021 38.3736 27.8479 39.0181 28.3958 39.8018C28.9651 40.6147 29.0672 40.7528 29.193 40.9021C29.193 40.9021 30.071 41.9429 31.5509 42.5862C34.176 43.727 37.2211 42.447 37.5018 42.3246C37.4647 40.4777 37.4265 38.6318 37.3895 36.7849C33.9604 37.1688 30.5302 37.5528 27.1012 37.9357Z" fill="#702D31"/>
<path d="M40.1211 26.701C39.8584 29.371 39.5956 32.041 39.3329 34.711C39.3105 34.9411 39.2263 35.1601 39.0893 35.3465L35.9263 39.6557C35.7759 39.8612 35.5581 40.0072 35.3111 40.0689C34.3095 40.317 32.9711 40.5281 31.4015 40.4529C30.419 40.4058 29.5534 40.2564 28.8292 40.079C28.5574 40.0128 28.3228 39.8444 28.1723 39.6086C27.1461 38.0063 26.1199 36.4041 25.0936 34.8008C24.9836 34.629 24.9162 34.4336 24.8971 34.2304C24.6569 31.721 24.4177 29.2104 24.1774 26.701C24.2605 26.4686 24.3447 26.2204 24.4267 25.9577C24.7107 25.0482 24.9724 23.9659 25.1262 22.733C25.2969 21.3655 25.2935 20.1517 25.2261 19.1569C27.3179 19.4567 29.7611 19.6667 32.4861 19.6442C34.8743 19.624 37.0357 19.4275 38.9242 19.1569C38.8512 20.2359 38.8591 21.6349 39.1364 23.2327C39.334 24.3802 39.6282 25.3783 39.9314 26.2058C39.9942 26.3787 40.0583 26.5438 40.1211 26.701Z" fill="#AD434B"/>
<path d="M29.7825 28.6927C29.7825 29.2035 29.4738 29.6178 29.092 29.6178C28.7102 29.6178 28.4014 29.2035 28.4014 28.6927C28.4014 28.1807 28.7102 27.7664 29.092 27.7664C29.4738 27.7664 29.7825 28.1807 29.7825 28.6927Z" fill="#271616"/>
<path d="M29.3794 28.2859C29.3794 28.3521 29.3244 28.4071 29.2581 28.4071C29.1908 28.4071 29.1368 28.3521 29.1368 28.2859C29.1368 28.2186 29.1908 28.1648 29.2581 28.1648C29.3244 28.1648 29.3794 28.2186 29.3794 28.2859Z" fill="white"/>
<path d="M24.2807 26.2358C24.037 26.0483 23.3633 25.5823 22.6178 25.7373C21.4748 25.9753 20.9853 27.4979 20.9258 28.3288C20.8 30.0961 22.391 31.9588 24.9094 33.0042C24.6995 30.7473 24.4906 28.4916 24.2807 26.2358Z" fill="#AD434B"/>
<path d="M23.9472 31.0674C23.7687 30.9506 22.5111 30.1153 22.1934 29.0453C22.1283 28.8253 22.0183 28.4537 22.1564 28.0259C22.2383 27.771 22.3775 27.5903 22.4763 27.4825C22.629 27.377 22.7559 27.3399 22.8614 27.3399C22.8884 27.3399 22.9142 27.3422 22.9389 27.3467C23.8428 27.5128 23.9348 30.5632 23.9472 31.0674Z" fill="#93343C"/>
<path d="M23.0253 27.2059C23.6327 27.2575 23.9482 28.6903 23.9976 28.9317C24.2334 30.0759 24.0133 31.0696 23.9471 31.0673C23.8876 31.0651 23.9448 30.2555 23.663 28.9934C23.3992 27.8055 23.1208 27.4944 22.8648 27.4484C22.6796 27.4147 22.4898 27.5169 22.4764 27.4821C22.4584 27.436 22.7548 27.1834 23.0253 27.2059Z" fill="#78252C"/>
<path d="M22.9603 28.927C22.6179 29.4457 22.9041 30.1666 22.9546 30.1632C23.0052 30.1598 22.7941 29.4671 23.1769 29.0696C23.3936 28.8439 23.7461 28.7698 23.7382 28.5767C23.7382 28.5677 23.7338 28.4981 23.6844 28.4644C23.5485 28.3735 23.1567 28.6295 22.9603 28.927Z" fill="#78252C"/>
<path d="M39.9509 26.2358C40.1945 26.0483 40.8681 25.5823 41.6136 25.7373C42.7565 25.9753 43.246 27.4979 43.3055 28.3288C43.4312 30.0961 41.8403 31.9588 39.3221 33.0042C39.5321 30.7473 39.7409 28.4916 39.9509 26.2358Z" fill="#AD434B"/>
<path d="M40.2844 31.0674C40.2968 30.5632 40.3888 27.5128 41.2924 27.3467C41.3171 27.3422 41.3429 27.3399 41.3699 27.3399C41.4754 27.3399 41.6023 27.377 41.7549 27.4825C41.8537 27.5903 41.9929 27.771 42.0748 28.0259C42.2129 28.4537 42.1029 28.8253 42.0378 29.0453C41.7201 30.1153 40.4629 30.9506 40.2844 31.0674Z" fill="#93343C"/>
<path d="M41.2059 27.2059C40.5983 27.2575 40.2838 28.6903 40.2333 28.9317C39.9974 30.0759 40.2176 31.0696 40.2838 31.0673C40.3433 31.0651 40.2861 30.2555 40.568 28.9934C40.8319 27.8055 41.1115 27.4944 41.3665 27.4484C41.5518 27.4147 41.7416 27.5169 41.7551 27.4821C41.7731 27.436 41.4766 27.1834 41.2059 27.2059Z" fill="#78252C"/>
<path d="M41.2709 28.927C41.6133 29.4457 41.327 30.1666 41.2765 30.1632C41.226 30.1598 41.4371 29.4671 41.0542 29.0696C40.8376 28.8439 40.4851 28.7698 40.4929 28.5767C40.4929 28.5677 40.4974 28.4981 40.5468 28.4644C40.6826 28.3735 41.0744 28.6295 41.2709 28.927Z" fill="#78252C"/>
<path d="M26.2737 25.1073C26.0076 25.3825 26.0166 25.7778 26.2175 25.9687C26.3545 26.0978 26.5735 26.1281 26.779 26.0619C26.9463 25.9047 27.4695 25.4498 28.2948 25.351C29.1504 25.2477 29.7848 25.5913 29.979 25.707C30.1587 25.7957 30.3619 25.7901 30.4843 25.6879C30.6617 25.5397 30.6797 25.1814 30.427 24.9411C30.2294 24.7379 29.6916 24.2415 28.8562 24.1157C27.3954 23.8956 26.3624 25.0096 26.2737 25.1073Z" fill="#271616"/>
<path d="M37.8508 25.1073C38.118 25.3825 38.109 25.7778 37.9069 25.9687C37.771 26.0978 37.551 26.1281 37.3455 26.0619C37.1793 25.9047 36.6549 25.4498 35.8296 25.351C34.9752 25.2477 34.3396 25.5913 34.1454 25.707C33.9668 25.7957 33.7636 25.7901 33.6401 25.6879C33.4638 25.5397 33.4447 25.1814 33.6985 24.9411C33.895 24.7379 34.4339 24.2415 35.2682 24.1157C36.7302 23.8956 37.7632 25.0096 37.8508 25.1073Z" fill="#271616"/>
<path d="M30.2744 27.3441C30.3137 27.2396 29.7724 26.8287 29.1111 26.7276C28.9382 26.7007 28.2645 26.6086 27.6357 27.0353C26.7397 27.6427 26.7486 28.7476 26.7509 28.8318C27.1461 28.1312 27.7412 27.3822 28.6036 27.2037C29.4457 27.0297 30.2272 27.4653 30.2744 27.3441Z" fill="#271616"/>
<path d="M33.9394 27.3441C33.899 27.2396 34.4401 26.8287 35.1013 26.7276C35.2753 26.7007 35.9477 26.6086 36.5775 27.0353C37.4722 27.6427 37.4633 28.7476 37.461 28.8318C37.0659 28.1312 36.4709 27.3822 35.6087 27.2037C34.7679 27.0297 33.9854 27.4653 33.9394 27.3441Z" fill="#271616"/>
<path d="M35.7817 28.6927C35.7817 29.2035 35.4728 29.6178 35.091 29.6178C34.7091 29.6178 34.4003 29.2035 34.4003 28.6927C34.4003 28.1807 34.7091 27.7664 35.091 27.7664C35.4728 27.7664 35.7817 28.1807 35.7817 28.6927Z" fill="#271616"/>
<path d="M35.4616 28.2859C35.4616 28.3521 35.4065 28.4071 35.3403 28.4071C35.2741 28.4071 35.2191 28.3521 35.2191 28.2859C35.2191 28.2186 35.2741 28.1648 35.3403 28.1648C35.4065 28.1648 35.4616 28.2186 35.4616 28.2859Z" fill="white"/>
<path d="M31.1579 31.3378C31.1848 31.3277 31.2106 31.3221 31.2387 31.3187C31.5228 31.2839 31.8472 31.2603 32.2054 31.2648C32.5333 31.2682 32.833 31.294 33.0969 31.3288C33.1541 31.3367 33.2069 31.3569 33.2541 31.3883C33.4011 31.486 33.6223 31.6657 33.7964 31.9565C33.9154 32.1553 33.9782 32.3473 34.0119 32.5079C34.049 32.6875 33.9569 32.8683 33.7874 32.9413C33.4236 33.0985 32.8757 33.2726 32.1964 33.2804C31.4285 33.2905 30.8154 33.0839 30.4337 32.9121C30.281 32.8425 30.19 32.6831 30.2103 32.5169C30.2327 32.3248 30.3012 32.0699 30.4842 31.8263C30.7155 31.5186 31.0119 31.3883 31.1579 31.3378Z" fill="#78252C"/>
<path d="M35.8727 32.6975C36.0186 32.5381 36.2522 32.5313 36.3791 32.6492C36.4734 32.7368 36.5026 32.8895 36.4498 33.0276C36.0624 33.5105 35.464 34.1079 34.5972 34.5301C32.1561 35.717 29.5355 34.5604 29.5489 34.4661C29.5624 34.365 32.5727 35.3992 34.7611 33.8462C35.3292 33.4431 35.6852 32.9771 35.8727 32.6975Z" fill="#78252C"/>
<path d="M31.1298 36.0459C31.4913 36.1469 31.9966 36.2469 32.604 36.2424C33.2866 36.2379 33.8446 36.102 34.2252 35.9774C34.3038 35.9808 34.3722 36.0223 34.3925 36.0807C34.4228 36.1638 34.3599 36.2839 34.2319 36.312C33.9086 36.4187 33.3349 36.5635 32.6174 36.495C31.9382 36.4299 31.424 36.2031 31.1298 36.0459Z" fill="#78252C"/>
<path d="M39.9315 26.2059C39.3892 25.3526 38.6448 23.9087 38.427 21.9965C38.3315 21.1589 38.3574 20.4123 38.4281 19.7936C36.6148 20.1282 34.4399 20.3842 31.9821 20.3842C31.5116 20.3842 31.031 20.3752 30.5404 20.355C28.8225 20.2843 27.2539 20.0945 25.8617 19.8497C25.8684 20.4358 25.8369 21.0859 25.7404 21.7866C25.5023 23.5101 24.9533 24.9203 24.4267 25.9578C24.7108 25.0483 24.9724 23.9659 25.1262 22.7331C25.2295 21.9056 25.2688 21.1331 25.2688 20.4325C25.2688 19.9755 25.2531 19.5499 25.2261 19.157C27.2146 19.4421 29.522 19.6454 32.0865 19.6454C32.219 19.6454 32.3526 19.6454 32.4862 19.6443C34.8744 19.624 37.0358 19.4275 38.9244 19.157C38.9008 19.5106 38.8851 19.8991 38.8851 20.3179C38.8851 21.1758 38.9502 22.1593 39.1366 23.2327C39.3342 24.3803 39.6284 25.3784 39.9315 26.2059Z" fill="#8D3038"/>
</svg>
