<svg width="64" height="65" viewBox="0 0 64 65" fill="none" xmlns="http://www.w3.org/2000/svg">
<path d="M64 32.5682C64 50.2412 49.673 64.5682 32 64.5682C14.327 64.5682 0 50.2412 0 32.5682C0 14.8955 14.327 0.56855 32 0.56855C49.673 0.56855 64 14.8955 64 32.5682Z" fill="#F0D4C2"/>
<path d="M25.0184 44.9415C22.3978 46.39 20.1971 47.2837 18.6644 47.8339C16.2695 48.694 14.7211 48.9971 13.4771 50.5522C12.8921 51.282 12.4946 52.1399 11.9792 53.2469C11.3527 54.5966 10.9552 55.7733 10.7071 56.6154C12.8898 58.5982 19.2921 63.8844 29.0459 64.85C42.2726 66.1581 51.5279 58.5185 53.2244 57.0645C52.7787 55.5184 52.2858 54.2586 51.8771 53.3222C51.3988 52.2297 51.1506 51.6705 50.6791 51.0766C49.6135 49.7326 48.2235 49.2071 47.46 48.9062C45.3075 48.054 42.5353 46.7661 38.8525 44.9415C34.2411 44.9415 29.6298 44.9415 25.0184 44.9415Z" fill="#4A2A2D"/>
<path d="M17.4069 61.3132C17.3238 59.6907 17.1093 57.8246 16.658 55.7923C16.3963 54.6111 16.0864 53.5243 15.7597 52.5362C16.2504 53.6579 16.7455 54.9985 17.1441 56.5413C17.637 58.4444 17.856 60.1646 17.9413 61.5905C17.7639 61.4984 17.5854 61.4053 17.4069 61.3132Z" fill="#171312"/>
<path d="M46.7447 61.3132C46.8289 59.6907 47.0434 57.8246 47.4948 55.7923C47.7564 54.6111 48.0652 53.5243 48.393 52.5362C47.9012 53.6579 47.4072 54.9985 47.0075 56.5413C46.5157 58.4444 46.2967 60.1646 46.2103 61.5905C46.3888 61.4984 46.5673 61.4053 46.7447 61.3132Z" fill="#171312"/>
<path d="M27.6738 38.7818C27.2842 38.7504 26.5387 38.7583 26.0143 39.25C25.9054 39.3522 25.5809 39.6879 25.3709 41.115C25.2429 41.9953 25.2553 42.6207 25.2508 42.9912C25.2385 43.7705 25.1228 44.8955 24.6299 46.3046C25.3058 46.692 26.0536 47.0446 26.8755 47.3343C32.1403 49.188 37.1829 47.2893 39.3432 46.3046C38.6493 44.7046 38.4831 43.3988 38.4584 42.5051C38.4236 41.2397 38.6616 40.3684 38.1036 39.661C37.5972 39.0199 36.7169 38.8694 36.0825 38.838C33.28 38.8189 30.4775 38.8009 27.6738 38.7818Z" fill="#6A3F43"/>
<path d="M26.3702 42.0279H37.4445V39.7811H26.3702V42.0279Z" fill="#533133"/>
<path d="M26.3702 40.621C27.4279 41.1779 30.3528 42.532 33.9492 41.828C35.4347 41.5361 36.6125 40.9769 37.4445 40.4806C36.5047 40.9196 35.2438 41.3789 33.7112 41.6034C30.3877 42.0874 27.6996 41.1812 26.3702 40.621Z" fill="#4A2A2D"/>
<path d="M26.4264 39.2309C26.0267 38.6134 25.6281 37.9959 25.2284 37.3783C25.2284 37.8836 25.2284 38.3888 25.2284 38.8941C24.6737 38.6381 24.1179 38.3821 23.5632 38.1272L24.9668 41.8909L22.0104 40.4806C21.6107 38.7728 21.2121 37.065 20.8124 35.3573C20.7877 36.8315 20.763 38.3069 20.7371 39.7811L19.1652 39.2029C18.3546 36.8641 17.4496 33.2194 17.7808 28.7888C17.929 26.7992 18.2973 25.0566 18.7161 23.6093C18.3894 23.2916 17.9986 22.8166 17.7808 22.1643C16.5581 18.4938 22.2799 13.5145 25.7527 11.2543C27.1764 10.328 34.4388 5.81261 37.7668 8.46603C38.3282 8.91403 38.656 9.46836 38.8525 9.90693C40.75 10.2991 42.103 11.472 42.2411 12.7897C42.2715 13.072 42.2625 13.5292 41.9964 14.0988C42.5387 14.5319 45.4232 16.9134 45.2244 20.1881C45.1986 20.6272 45.1133 21.1369 44.9157 21.6961C45.4726 23.8316 46.0037 26.7128 46.0194 30.1362C46.0362 33.709 45.4872 36.7035 44.9157 38.8941C44.2352 39.3803 43.5559 39.8676 42.8755 40.3537C42.807 38.6886 42.7385 37.0224 42.67 35.3573L41.6966 40.4806C40.9353 40.8197 40.174 41.1599 39.4128 41.499C39.5801 40.5502 39.7485 39.6015 39.9169 38.6527C39.4431 38.7897 38.9704 38.9255 38.4966 39.0625C38.6279 38.4641 38.7582 37.8645 38.8896 37.266C38.4079 37.9116 37.9262 38.5573 37.4445 39.2029C33.7718 39.2119 30.0991 39.222 26.4264 39.2309Z" fill="#4A2A2D"/>
<path d="M40.9072 25.9503C41.0824 27.7906 41.1543 30.0115 40.9477 32.5132C40.7534 34.8699 40.3559 36.937 39.9169 38.6527C39.4431 38.7897 38.9704 38.9255 38.4966 39.0625L38.8895 37.266L37.4445 39.2029L26.4264 39.2309L25.2284 37.3783V38.8941L23.5632 38.1272C23.342 37.0796 23.15 35.8861 23.0355 34.5668C22.9221 33.2508 22.9075 32.0461 22.9457 30.9783C23.1512 30.4169 23.3578 29.8555 23.5632 29.2941L40.9072 25.9503Z" fill="#341E1E"/>
<path d="M27.1427 14.9222C26.2029 16.0626 25.0936 17.6607 24.1965 19.7357C22.6695 23.2714 22.4988 26.477 22.5527 28.3958C22.7795 26.2973 23.2746 23.6149 24.3683 20.6485C25.2149 18.3501 26.2153 16.4375 27.1427 14.9222Z" fill="#341E1E"/>
<path d="M38.8525 9.90695C39.0916 10.2987 39.3387 10.7605 39.5632 11.2918C39.9293 12.1604 40.1269 12.9603 40.2369 13.6122C40.2032 13.0136 40.1078 12.2761 39.8742 11.459C39.7182 10.9123 39.5307 10.4343 39.3432 10.0294C39.1792 9.98869 39.0153 9.94782 38.8525 9.90695Z" fill="#341E1E"/>
<path d="M27.7446 21.6073C28.8 20.5497 29.8543 19.492 30.9086 18.4321C31.7732 17.5619 32.6378 16.6917 33.5023 15.8204C32.7747 16.7783 31.954 17.7842 31.0299 18.8149C30.144 19.8019 29.2716 20.6923 28.4328 21.4917C28.2038 21.531 27.9736 21.5692 27.7446 21.6073Z" fill="#341E1E"/>
<path d="M36.0264 37.3783L35.9983 41.0274C35.218 41.3688 34.0323 41.773 32.5457 41.8695C30.3596 42.0121 28.6439 41.417 27.7446 41.0274C27.7446 39.8474 27.7446 38.6673 27.7446 37.4872L36.0264 37.3783Z" fill="#EB8555"/>
<path d="M27.7446 37.4872C28.4576 38.1755 29.568 39.0872 31.1141 39.8204C33.0936 40.7591 34.8946 40.9792 35.9983 41.0274C36.0073 39.8114 36.0174 38.5943 36.0264 37.3783L27.7446 37.4872Z" fill="#B85E47"/>
<path d="M40.8544 27.7783C40.5906 29.6916 40.2784 31.2893 40.0123 32.4941C39.5329 34.6667 39.2511 35.3584 38.665 35.9748C38.2372 36.4239 37.495 36.7484 36.0264 37.3783C33.8324 38.3204 32.7366 38.7908 31.8159 38.7818C31.0883 38.7751 30.1698 38.4214 28.3352 37.7152C26.4286 36.9808 25.4653 36.6025 25.0229 36.031C24.5244 35.3865 24.5569 34.9025 24.1246 32.3257C23.9506 31.2815 23.7833 30.4001 23.6553 29.7522C23.6216 29.5838 23.5913 29.43 23.5632 29.2941C23.9293 28.004 24.5277 26.3872 25.5338 24.6682H25.5349L25.536 24.6659V24.6648C25.5618 24.6199 25.5888 24.5761 25.6157 24.5301C25.655 24.4649 25.6943 24.3987 25.7347 24.3336C26.1973 23.579 26.6757 22.911 27.1427 22.326C27.319 22.1048 27.4953 21.8937 27.6671 21.6961C27.6929 21.6658 27.7187 21.6366 27.7446 21.6074C29.2862 21.3806 31.7249 20.8147 34.286 19.245C35.9511 18.2255 37.1739 17.0846 38.0193 16.1573C38.665 17.197 39.3555 18.5287 39.9 20.1433C40.6142 22.2597 40.8589 24.2123 40.9005 25.8078C40.9195 26.5489 40.896 27.2113 40.8544 27.7783Z" fill="#EB8555"/>
<path d="M23.5677 29.2784C23.5689 29.275 23.57 29.2716 23.57 29.2694C23.57 29.2716 23.5689 29.275 23.5677 29.2784ZM23.5722 29.2638C23.5734 29.2593 23.5745 29.2548 23.5756 29.2514C23.5745 29.2548 23.5734 29.2593 23.5722 29.2638ZM23.5767 29.2481C23.5778 29.2436 23.579 29.2402 23.5801 29.2357C23.579 29.2402 23.5778 29.2436 23.5767 29.2481ZM23.5812 29.2323C23.5823 29.229 23.5835 29.2245 23.5846 29.22C23.5835 29.2245 23.5823 29.229 23.5812 29.2323ZM23.5857 29.2178C23.5868 29.2133 23.588 29.2088 23.5891 29.2054C23.588 29.2088 23.5868 29.2133 23.5857 29.2178ZM23.5902 29.202C23.5913 29.1975 23.5924 29.193 23.5936 29.1886C23.5924 29.193 23.5913 29.1975 23.5902 29.202ZM23.5936 29.1863C23.5958 29.1818 23.5969 29.1773 23.5981 29.1728C23.5969 29.1773 23.5958 29.1818 23.5936 29.1863ZM23.5981 29.1717C23.5992 29.1672 23.6014 29.1616 23.6026 29.1571C23.6014 29.1616 23.5992 29.1672 23.5981 29.1717ZM23.6026 29.156C23.6239 29.0853 23.6452 29.0123 23.6677 28.9393C23.6452 29.0123 23.6239 29.0853 23.6026 29.156ZM23.6677 28.9382C23.6711 28.9281 23.6733 28.918 23.6767 28.9079C23.6733 28.918 23.6711 28.9281 23.6677 28.9382ZM23.6778 28.9056C23.6789 28.9011 23.68 28.8966 23.6811 28.8921C23.68 28.8966 23.6789 28.9011 23.6778 28.9056ZM23.6823 28.8888C23.6845 28.8854 23.6856 28.8809 23.6868 28.8764C23.6856 28.8809 23.6845 28.8854 23.6823 28.8888ZM23.6879 28.873C23.689 28.8686 23.6901 28.8641 23.6913 28.8596C23.6901 28.8641 23.689 28.8686 23.6879 28.873ZM23.6924 28.8585C23.6935 28.854 23.6946 28.8483 23.6969 28.8439C23.6946 28.8483 23.6935 28.854 23.6924 28.8585ZM23.698 28.8416C23.6991 28.8371 23.7002 28.8326 23.7014 28.8281C23.7002 28.8326 23.6991 28.8371 23.698 28.8416ZM23.7025 28.8259C23.707 28.8113 23.7115 28.7978 23.716 28.7832C23.7115 28.7978 23.707 28.8113 23.7025 28.8259ZM23.7328 28.7282V28.7271V28.7282ZM23.7384 28.7114C23.7384 28.7102 23.7384 28.7102 23.7384 28.7102C23.7384 28.7102 23.7384 28.7102 23.7384 28.7114ZM25.5349 24.6681C25.5349 24.667 25.536 24.6659 25.536 24.6648V24.6659L25.5349 24.6681ZM25.7348 24.3336C26.1996 23.5734 26.6824 22.902 27.1518 22.3136C27.1495 22.3181 27.1462 22.3215 27.1428 22.326C26.6757 22.911 26.1974 23.579 25.7348 24.3336Z" fill="#8E4442"/>
<path d="M23.6553 29.7522C23.6216 29.5838 23.5913 29.43 23.5632 29.2941C23.5644 29.2885 23.5666 29.284 23.5677 29.2784C23.5689 29.275 23.57 29.2716 23.57 29.2694C23.5711 29.2671 23.5711 29.2649 23.5722 29.2638C23.5733 29.2593 23.5745 29.2548 23.5756 29.2514C23.5756 29.2503 23.5756 29.2492 23.5767 29.2481C23.5778 29.2436 23.579 29.2402 23.5801 29.2357C23.5801 29.2346 23.5801 29.2335 23.5812 29.2323C23.5823 29.229 23.5834 29.2245 23.5846 29.22C23.5846 29.2189 23.5846 29.2189 23.5857 29.2177C23.5868 29.2133 23.5879 29.2088 23.5891 29.2054C23.5891 29.2043 23.5891 29.2031 23.5902 29.202C23.5913 29.1975 23.5924 29.193 23.5935 29.1886C23.5935 29.1886 23.5935 29.1874 23.5935 29.1863C23.5958 29.1818 23.5969 29.1773 23.598 29.1728V29.1717C23.5992 29.1672 23.6014 29.1616 23.6025 29.1571C23.6025 29.1571 23.6025 29.1571 23.6025 29.156C23.6239 29.0853 23.6452 29.0123 23.6677 28.9393C23.6677 28.9382 23.6677 28.9382 23.6677 28.9382C23.671 28.9281 23.6733 28.918 23.6766 28.9078C23.6766 28.9067 23.6777 28.9067 23.6777 28.9056C23.6789 28.9011 23.68 28.8966 23.6811 28.8921C23.6822 28.891 23.6822 28.8899 23.6822 28.8888C23.6845 28.8854 23.6856 28.8809 23.6867 28.8764C23.6867 28.8753 23.6879 28.8742 23.6879 28.873C23.689 28.8686 23.6901 28.8641 23.6912 28.8596C23.6924 28.8596 23.6924 28.8584 23.6924 28.8584C23.6935 28.854 23.6946 28.8483 23.6969 28.8438C23.6969 28.8427 23.6968 28.8416 23.698 28.8416C23.6991 28.8371 23.7002 28.8326 23.7013 28.8281C23.7013 28.827 23.7025 28.827 23.7025 28.8259C23.707 28.8113 23.7114 28.7978 23.7159 28.7832C23.7193 28.7709 23.7238 28.7585 23.7272 28.745C23.7294 28.7394 23.7305 28.7338 23.7328 28.7282V28.7271C23.735 28.7215 23.7361 28.7158 23.7384 28.7114C23.7384 28.7102 23.7384 28.7102 23.7384 28.7102C24.1123 27.5313 24.6748 26.1368 25.5349 24.6681L25.536 24.6659V24.6648C25.6011 24.5547 25.6663 24.4447 25.7347 24.3335C26.1973 23.579 26.6757 22.9109 27.1428 22.326C27.1461 22.3215 27.1495 22.3181 27.1517 22.3136C27.3527 22.0632 27.5503 21.8285 27.7446 21.6074C29.2862 21.3805 31.7249 20.8147 34.286 19.245C35.9512 18.2255 37.1739 17.0846 38.0194 16.1573C38.665 17.197 39.3555 18.5286 39.9001 20.1432C40.6142 22.2597 40.8589 24.2123 40.9005 25.8078V26.8239C40.7231 25.0735 40.3447 22.948 39.5632 20.6204C39.1096 19.2686 38.5931 18.0694 38.0755 17.0274C36.6754 18.5286 34.048 20.8461 30.2159 21.6309C29.5141 21.7747 28.8427 21.8521 28.2117 21.8836C27.6031 22.5786 26.9721 23.3814 26.359 24.2999C25.0375 26.276 24.1987 28.1791 23.6553 29.7522Z" fill="#C96451"/>
<path d="M31.653 27.0036L30.3685 31.6666C30.3371 31.7812 30.3629 31.9103 30.4348 31.9844C30.6773 32.237 31.2039 32.6828 31.936 32.6805C32.6579 32.6794 33.1778 32.2426 33.4226 31.99C33.4967 31.9137 33.5214 31.7778 33.4854 31.661C33.0015 30.1059 32.5165 28.5497 32.0325 26.9935C31.9607 26.7622 31.7182 26.7689 31.653 27.0036Z" fill="#B6534D"/>
<path d="M34.5106 23.4937C34.332 23.6172 34.1243 23.6453 34.0165 23.561C33.8762 23.4521 33.8582 23.1164 34.1176 22.857C34.3141 22.6594 35.6772 21.3323 37.2895 21.659C38.5852 21.9217 39.4105 23.1187 39.3386 23.2119C39.2702 23.3006 38.4404 22.372 37.2334 22.2911C36.1027 22.2137 35.136 22.9132 34.5106 23.4937Z" fill="#381C1B"/>
<path d="M34.4825 25.4204C34.9665 24.4279 35.922 23.8417 36.8494 23.9417C37.5736 24.0203 38.0475 24.4907 38.2091 24.6681C38.1867 24.694 38.1642 24.7209 38.1407 24.7467C37.9037 24.5828 37.4389 24.3133 36.8124 24.2785C35.456 24.2044 34.578 25.298 34.4825 25.4204Z" fill="#381C1B"/>
<path d="M38.0193 24.621C38.2967 24.3874 38.574 24.155 38.8524 23.9215C38.6155 24.1966 38.3775 24.4717 38.1406 24.7467C38.1002 24.7052 38.0598 24.6625 38.0193 24.621Z" fill="#381C1B"/>
<path d="M36.7372 26.2995C36.7372 26.8789 36.4059 27.3482 35.9983 27.3482C35.5896 27.3482 35.2595 26.8789 35.2595 26.2995C35.2595 25.7213 35.5896 25.252 35.9983 25.252C36.4059 25.252 36.7372 25.7213 36.7372 26.2995Z" fill="#1E1414"/>
<path d="M36.3453 25.8123C36.3453 25.8886 36.2835 25.9504 36.2072 25.9504C36.1308 25.9504 36.0691 25.8886 36.0691 25.8123C36.0691 25.7348 36.1308 25.673 36.2072 25.673C36.2835 25.673 36.3453 25.7348 36.3453 25.8123Z" fill="white"/>
<path d="M29.7263 23.561C29.6185 23.6453 29.4108 23.6172 29.2323 23.4937C28.727 23.0232 27.9995 22.4787 27.1428 22.326C27.319 22.1048 27.4953 21.8937 27.6671 21.6961C28.7079 21.9577 29.4804 22.7122 29.6253 22.8571C29.8846 23.1164 29.8667 23.4521 29.7263 23.561Z" fill="#381C1B"/>
<path d="M29.2604 25.4204C29.1649 25.298 28.2869 24.2044 26.9305 24.2785C26.304 24.3133 25.8392 24.5828 25.6022 24.7467C25.5787 24.7209 25.5562 24.694 25.5338 24.6681L25.536 24.6659V24.6648C25.5641 24.6345 25.6 24.5963 25.6449 24.5547C25.8661 24.3403 26.2939 24.0068 26.8935 23.9417C27.8198 23.8417 28.7764 24.4279 29.2604 25.4204Z" fill="#381C1B"/>
<path d="M25.7235 24.6199C25.6831 24.6625 25.6427 24.7041 25.6022 24.7467C25.5798 24.7209 25.5573 24.694 25.5349 24.6681H25.5338L25.536 24.6659V24.6648C25.5618 24.6199 25.5888 24.5761 25.6157 24.53L25.6449 24.5547C25.6707 24.5761 25.6977 24.5974 25.7235 24.6199Z" fill="#381C1B"/>
<path d="M27.0057 26.2995C27.0057 26.8789 27.337 27.3482 27.7446 27.3482C28.1533 27.3482 28.4834 26.8789 28.4834 26.2995C28.4834 25.7213 28.1533 25.252 27.7446 25.252C27.337 25.252 27.0057 25.7213 27.0057 26.2995Z" fill="#1E1414"/>
<path d="M27.3965 25.8123C27.3965 25.8886 27.4594 25.9504 27.5357 25.9504C27.6121 25.9504 27.6738 25.8886 27.6738 25.8123C27.6738 25.7348 27.6121 25.673 27.5357 25.673C27.4594 25.673 27.3965 25.7348 27.3965 25.8123Z" fill="white"/>
<path d="M33.7718 33.6731C34.5948 33.2262 35.127 32.3964 35.0866 32.3538C35.0473 32.3134 34.5173 32.9803 33.7246 33.3789C31.7721 34.3602 29.4479 33.1083 29.4299 33.1678C29.4119 33.2307 31.8978 34.6881 33.7718 33.6731Z" fill="#B6534D"/>
</svg>
